<?xml version="1.0" standalone="no"?>
<!DOCTYPE svg PUBLIC "-//W3C//DTD SVG 20010904//EN"
 "http://www.w3.org/TR/2001/REC-SVG-20010904/DTD/svg10.dtd">
<svg version="1.0" xmlns="http://www.w3.org/2000/svg"
 width="96.000000pt" height="96.000000pt" viewBox="0 0 96.000000 96.000000"
 preserveAspectRatio="xMidYMid meet">

<g transform="translate(0.000000,96.000000) scale(0.100000,-0.100000)"
fill="#000000" stroke="none">
<path d="M698 893 c-42 -49 -47 -93 -9 -93 23 0 64 61 59 87 -5 24 -31 27 -50
6z"/>
<path d="M449 814 c-77 -74 -103 -92 -202 -139 -123 -58 -168 -97 -186 -162
-14 -48 -14 -68 -1 -115 21 -75 102 -138 177 -138 l38 0 44 -96 c29 -62 52
-100 66 -106 29 -13 164 7 184 27 13 13 9 23 -32 82 -25 37 -55 89 -66 114
l-19 46 35 17 c20 9 92 24 162 32 69 9 132 20 139 26 6 6 12 21 12 34 0 29
-187 434 -208 452 -30 24 -54 11 -143 -74z m204 -182 c81 -172 84 -182 64
-186 -12 -3 -64 -10 -116 -16 -77 -9 -112 -19 -202 -60 -118 -54 -170 -62
-219 -33 -42 24 -73 87 -67 133 9 65 32 88 159 150 93 46 135 74 200 133 46
42 86 73 89 69 4 -4 45 -89 92 -190z m-243 -362 c7 -17 28 -56 47 -87 18 -31
32 -57 31 -59 -2 -1 -20 -5 -40 -9 l-38 -7 -35 77 c-19 43 -35 81 -35 85 0 6
37 28 51 29 4 1 12 -13 19 -29z"/>
<path d="M812 750 c-39 -24 -40 -54 -2 -58 34 -3 92 34 88 56 -5 25 -48 26
-86 2z"/>
<path d="M790 556 c0 -27 11 -33 74 -38 18 -2 32 3 39 14 17 26 -3 40 -62 46
-50 4 -51 4 -51 -22z"/>
</g>
</svg>
