<?xml version="1.0" encoding="UTF-8"?>
<svg version="1.1" xmlns="http://www.w3.org/2000/svg" width="512" height="512">
<path d="M0 0 C4.75073125 4.21579636 6.51106688 10.43991127 7.25 16.5625 C5.37492164 31.02739022 -7.36084845 40.26082257 -17.15234375 50.03515625 C-18.51337513 51.39686258 -19.87425815 52.75871722 -21.23500061 54.12071228 C-24.07683955 56.96401919 -26.92046282 59.80552599 -29.76538086 62.64575195 C-33.39428592 66.26896031 -37.0186822 69.89664043 -40.64174557 73.52568913 C-43.4479179 76.33549146 -46.25648799 79.1428874 -49.06576729 81.94958305 C-50.40241246 83.2855657 -51.73832784 84.62227894 -53.07346916 85.95976448 C-54.94621453 87.83507666 -56.82218268 89.7071078 -58.69897461 91.57836914 C-59.23896088 92.12037964 -59.77894714 92.66239014 -60.33529663 93.2208252 C-63.16417048 96.03443392 -66.0582418 98.72076356 -69.07948303 101.32749939 C-73.37954743 105.05384441 -77.39670762 109.02013768 -81.40429688 113.05664062 C-82.18265396 113.83645798 -82.96101105 114.61627533 -83.76295471 115.41972351 C-85.43965386 117.10020537 -87.11519761 118.78184068 -88.78968811 120.46452332 C-91.44491578 123.13260293 -94.10333197 125.79746889 -96.76257324 128.46154785 C-102.40703246 134.11739301 -108.04758172 139.77712778 -113.6875 145.4375 C-120.22687965 152.00059561 -126.76795484 158.56198638 -133.31324768 165.1191864 C-135.92309931 167.73548651 -138.52990327 170.35479699 -141.13659668 172.97424316 C-142.74781614 174.5890976 -144.35917754 176.20381043 -145.97070312 177.81835938 C-146.68678238 178.53960495 -147.40286163 179.26085052 -148.14064026 180.00395203 C-152.0938616 183.9575826 -156.14239266 187.72847329 -160.39640045 191.35752106 C-163.93027827 194.47485339 -167.12995345 197.950174 -170.34179688 201.39453125 C-174.69654009 205.89283742 -178.62303233 208.32732008 -184.92578125 209.40625 C-192.80226793 209.50186744 -198.82997763 208.03421951 -204.69677734 202.51855469 C-207.64852841 199.52255896 -210.45309991 196.4021367 -213.25390625 193.265625 C-218.23354664 187.7085051 -223.56342674 182.50959802 -228.8828125 177.28051758 C-232.23477429 173.96579145 -235.49866553 170.63958241 -238.56640625 167.05859375 C-242.99517488 161.9103798 -247.85426855 157.20236891 -252.6875 152.4375 C-258.12660943 147.07532281 -263.45529957 141.71997125 -268.42236328 135.91650391 C-272.61119982 131.22014029 -277.24770183 126.92280531 -281.77929688 122.56054688 C-288.3381815 116.12281713 -292.81157289 110.57640667 -293.4375 101.1875 C-293.33834549 94.53175365 -290.90594869 88.65594869 -286.1875 83.9375 C-280.05686123 79.69761898 -274.62057468 78.19419253 -267.1875 78.9375 C-259.83749933 80.68553387 -254.97258234 84.77177383 -250.19140625 90.42578125 C-245.46446397 95.86582646 -240.31584219 100.88133957 -235.1875 105.9375 C-229.6106709 111.43583486 -224.10976386 116.93142784 -219.015625 122.88671875 C-215.1123274 127.26541798 -210.86312521 131.32093597 -206.6875 135.4375 C-201.08537204 140.96038994 -195.57329508 146.41615668 -190.64257812 152.55664062 C-189.15915089 154.28168277 -189.15915089 154.28168277 -186.1875 153.9375 C-184.51164285 152.66094578 -184.51164285 152.66094578 -182.89453125 150.90234375 C-182.26353516 150.25716797 -181.63253906 149.61199219 -180.98242188 148.94726562 C-180.32822266 148.26341797 -179.67402344 147.57957031 -179 146.875 C-177.71748878 145.54821936 -176.43232757 144.22399518 -175.14453125 142.90234375 C-174.29338745 142.01470337 -174.29338745 142.01470337 -173.42504883 141.10913086 C-171.51211927 139.25255602 -169.55918408 137.52186938 -167.53825378 135.78627014 C-163.2965151 132.08361577 -159.30283327 128.18067205 -155.33789062 124.18554688 C-154.59854782 123.4447438 -153.85920502 122.70394073 -153.09745789 121.94068909 C-151.50588136 120.34533183 -149.91546019 118.74882125 -148.32609558 117.15126038 C-145.80529209 114.61759588 -143.28129285 112.08715365 -140.75646973 109.55749512 C-135.39732704 104.18697091 -130.04212357 98.81252946 -124.6875 93.4375 C-118.47851661 87.20485485 -112.267896 80.97385969 -106.05302429 74.74708557 C-103.57612513 72.26374189 -101.10227659 69.77738703 -98.62854004 67.29089355 C-97.09821265 65.75693092 -95.56774315 64.22311004 -94.03710938 62.68945312 C-93.35843307 62.0056105 -92.67975677 61.32176788 -91.98051453 60.61720276 C-88.1242681 56.76053638 -84.15083723 53.11207649 -80.0230999 49.54823303 C-77.5316931 47.36203155 -75.19241783 45.04717987 -72.8605957 42.69238281 C-72.389534 42.21825455 -71.91847229 41.74412628 -71.43313599 41.25563049 C-70.42759699 40.24302853 -69.42319925 39.22929214 -68.41988564 38.21448517 C-66.82866864 36.60562869 -65.23372069 35.0005547 -63.63774109 33.39642334 C-59.10659017 28.84102288 -54.5813041 24.27982834 -50.06030273 19.71435547 C-47.28023833 16.90746396 -44.49528405 14.10550104 -41.70729637 11.30648041 C-40.6516793 10.24467784 -39.59796049 9.18098441 -38.54622841 8.11533356 C-37.07746385 6.62728065 -35.60257401 5.14555781 -34.1262207 3.66503906 C-33.29097366 2.82233459 -32.45572662 1.97963013 -31.59516907 1.11138916 C-21.94800465 -7.59905466 -10.55609677 -6.83041556 0 0 Z " fill="#000000" transform="translate(335.1875,154.0625)"/>
<path d="M0 0 C6.04242437 2.71851985 9.86334454 7.09259735 12.44140625 13.1796875 C14.79836062 20.31827919 13.94446168 25.39643627 10.87952423 32.02924728 C8.933244 35.57041203 6.40116285 38.20005116 3.51855469 40.99853516 C2.91634598 41.60308029 2.31413727 42.20762543 1.69367981 42.83049011 C-0.27969052 44.80546168 -2.27020956 46.76208499 -4.26171875 48.71875 C-5.65033536 50.10056572 -7.03791207 51.48342716 -8.42449951 52.86727905 C-12.0664805 56.49589574 -15.72363689 60.10884351 -19.3838501 63.71905518 C-22.35642009 66.65626736 -25.31784565 69.60457398 -28.27875137 72.55353737 C-31.83172772 76.09165124 -35.38981605 79.62460253 -38.94921875 83.15625 C-39.61943306 83.82155354 -40.28964737 84.48685707 -40.9801712 85.17232132 C-42.89848059 87.07416594 -44.82020766 88.97248421 -46.74316406 90.86962891 C-47.57423927 91.69431419 -47.57423927 91.69431419 -48.42210388 92.53565979 C-51.29228606 95.35972855 -54.22278194 98.06878398 -57.27178955 100.69943237 C-61.5679268 104.42495276 -65.58276354 108.38980511 -69.58789062 112.42382812 C-70.36624771 113.20364548 -71.1446048 113.98346283 -71.94654846 114.78691101 C-73.62324761 116.46739287 -75.29879136 118.14902818 -76.97328186 119.83171082 C-79.62850953 122.49979043 -82.28692572 125.16465639 -84.94616699 127.82873535 C-90.59062621 133.48458051 -96.23117547 139.14431528 -101.87109375 144.8046875 C-108.4104734 151.36778311 -114.95154859 157.92917388 -121.49684143 164.4863739 C-124.10669306 167.10267401 -126.71349702 169.72198449 -129.32019043 172.34143066 C-130.93140989 173.9562851 -132.54277129 175.57099793 -134.15429688 177.18554688 C-134.87037613 177.90679245 -135.58645538 178.62803802 -136.32423401 179.37113953 C-140.31130928 183.35862754 -144.39869048 187.162587 -148.67972469 190.8335228 C-150.77405651 192.65518734 -152.71031723 194.59295747 -154.625 196.6015625 C-155.68944336 197.69791016 -155.68944336 197.69791016 -156.77539062 198.81640625 C-158.22389276 200.31865371 -159.66654488 201.82656223 -161.10351562 203.33984375 C-166.6527292 209.02538924 -171.39498084 212.70406701 -179.68359375 212.8046875 C-189.99499091 212.37037593 -195.7117554 207.35737012 -202.43359375 200.0546875 C-204.21278917 198.07043064 -205.98217303 196.07782574 -207.74951172 194.08300781 C-209.88519269 191.74089697 -212.17874927 189.59050624 -214.49609375 187.4296875 C-219.807998 182.13756688 -222.48681078 176.83896269 -222.87109375 169.3046875 C-222.5976772 163.44445942 -220.89138821 158.21718917 -217.015625 153.73828125 C-211.64980453 148.91911273 -205.74740759 146.71755333 -198.62890625 147.03125 C-190.31810799 148.03774806 -185.83908152 152.1822863 -180.37109375 158.3046875 C-166.73417701 146.75112024 -154.07669452 134.15117541 -141.47865295 121.4874115 C-138.95729147 118.95302329 -136.43258841 116.42200356 -133.90710449 113.89172363 C-128.55890037 108.53223313 -123.21470366 103.1687581 -117.87109375 97.8046875 C-111.64236069 91.55224134 -105.41193529 85.3015 -99.17729187 79.0549469 C-96.70258299 76.57380729 -94.23092703 74.08965464 -91.75939941 71.60534668 C-90.23493077 70.07724405 -88.71032073 68.54928246 -87.18554688 67.02148438 C-86.5100882 66.34085937 -85.83462952 65.66023438 -85.13870239 64.95898438 C-81.2906173 61.11047817 -77.32381958 57.47213998 -73.2049942 53.91567802 C-70.72572301 51.73776134 -68.40476867 49.42828862 -66.09179688 47.07543945 C-65.62555405 46.60291748 -65.15931122 46.13039551 -64.67893982 45.64355469 C-63.68325579 44.63419557 -62.68868633 43.62373588 -61.69517517 42.61223793 C-60.11651949 41.00653061 -58.53317835 39.40558223 -56.94836426 37.80595398 C-52.44828929 33.26352376 -47.95116663 28.71828764 -43.47021484 24.15698242 C-40.71406083 21.35209081 -37.94805164 18.55724696 -35.17552185 15.76854515 C-34.12894723 14.7121374 -33.08602127 13.65210082 -32.04701233 12.58825111 C-22.7770519 3.10143967 -14.0091813 -4.10812895 0 0 Z " fill="#000000" transform="translate(455.37109375,150.6953125)"/>
</svg>
