<?xml version="1.0" encoding="UTF-8"?>
<svg version="1.1" xmlns="http://www.w3.org/2000/svg" width="128" height="128">
<path d="M0 0 C10.23906578 7.73254248 18.72711365 17.59665562 20.6875 30.6875 C22.11678455 48.13329299 19.50517553 61.04058775 8.03125 74.65234375 C0.02533375 83.28136197 -10.26078398 88.35475631 -21.96875 89.00390625 C-38.65548452 89.56319388 -50.64291019 85.89777041 -63.0625 74.375 C-73.05541038 63.81645319 -75.82689781 52.26922077 -75.73217773 38.15722656 C-75.32139743 24.03483761 -69.475381 12.95884274 -59.25 3.28125 C-42.59283172 -10.42061423 -18.05009418 -11.9794347 0 0 Z M-60.5625 11.875 C-69.62195942 23.23158731 -71.68523455 35.61018264 -70.3125 49.6875 C-67.40179848 62.2439792 -60.06743338 71.77489674 -49.3125 78.6875 C-38.62934823 84.32916442 -26.91619706 85.31494631 -15.0703125 83.07421875 C-2.18376272 78.83473063 6.66661426 69.84741619 13.06640625 58.171875 C17.3337949 48.4773196 17.41510396 35.71448349 14.125 25.6875 C8.17033415 12.03789623 -0.88388449 4.50214734 -14.3125 -1.3125 C-31.1108025 -6.19533147 -48.75074934 -0.70374746 -60.5625 11.875 Z " fill="#000000" transform="translate(91.3125,23.3125)"/>
<path d="M0 0 C3.17392049 1.70852863 4.48140632 2.73718772 5.63671875 6.203125 C5.30671875 6.863125 4.97671875 7.523125 4.63671875 8.203125 C2.12879022 7.78513691 0.01641061 7.41088092 -2.2265625 6.18359375 C-6.88901115 4.04415205 -12.51822018 4.5212546 -17.23828125 6.265625 C-20.14837019 8.91894138 -21.5771394 11.69699471 -23.36328125 15.203125 C-24.68328125 15.203125 -26.00328125 15.203125 -27.36328125 15.203125 C-27.00794435 9.28084337 -25.60739216 6.35292233 -21.36328125 2.203125 C-15.57086865 -2.14118445 -6.74603583 -2.27469638 0 0 Z " fill="#000000" transform="translate(75.36328125,72.796875)"/>
<path d="M0 0 C2.5 1.5 2.5 1.5 4 4 C4.791013 8.02098277 4.62153384 10.96411027 2.5 14.5 C-1.03588973 16.62153384 -3.97901723 16.791013 -8 16 C-10.5 14.5 -10.5 14.5 -12 12 C-12.791013 7.97901723 -12.62153384 5.03588973 -10.5 1.5 C-6.96411027 -0.62153384 -4.02098277 -0.791013 0 0 Z M-6 5 C-6.33 6.65 -6.66 8.3 -7 10 C-4.525 10.495 -4.525 10.495 -2 11 C-1.67 9.35 -1.34 7.7 -1 6 C-2.65 5.67 -4.3 5.34 -6 5 Z " fill="#000000" transform="translate(84,44)"/>
<path d="M0 0 C2.5 1.5 2.5 1.5 4 4 C4.791013 8.02098277 4.62153384 10.96411027 2.5 14.5 C-1.03588973 16.62153384 -3.97901723 16.791013 -8 16 C-10.5 14.5 -10.5 14.5 -12 12 C-12.791013 7.97901723 -12.62153384 5.03588973 -10.5 1.5 C-6.96411027 -0.62153384 -4.02098277 -0.791013 0 0 Z M-6 5 C-6.33 6.65 -6.66 8.3 -7 10 C-4.525 10.495 -4.525 10.495 -2 11 C-1.67 9.35 -1.34 7.7 -1 6 C-2.65 5.67 -4.3 5.34 -6 5 Z " fill="#000000" transform="translate(52,44)"/>
<path d="M0 0 C5.72057656 0.53570617 10.60387543 1.63577044 15.9375 3.75 C16.60845703 3.98976562 17.27941406 4.22953125 17.97070312 4.4765625 C19.90234375 5.234375 19.90234375 5.234375 23 7 C23.94140625 9.703125 23.94140625 9.703125 24 12 C18.27942344 11.46429383 13.39612457 10.36422956 8.0625 8.25 C7.39154297 8.01023437 6.72058594 7.77046875 6.02929688 7.5234375 C4.09765625 6.765625 4.09765625 6.765625 1 5 C0.05859375 2.296875 0.05859375 2.296875 0 0 Z " fill="#000000" transform="translate(68,32)"/>
<path d="M0 0 C0.046875 2.26171875 0.046875 2.26171875 -1 5 C-3.73752806 6.73192165 -6.70537869 7.73834622 -9.75 8.8125 C-10.56210937 9.12380859 -11.37421875 9.43511719 -12.2109375 9.75585938 C-16.22458826 11.24300196 -19.65209295 12.45069768 -24 12 C-24.046875 9.73828125 -24.046875 9.73828125 -23 7 C-20.26247194 5.26807835 -17.29462131 4.26165378 -14.25 3.1875 C-13.43789063 2.87619141 -12.62578125 2.56488281 -11.7890625 2.24414062 C-7.77541174 0.75699804 -4.34790705 -0.45069768 0 0 Z " fill="#000000" transform="translate(60,32)"/>
</svg>
