<?xml version="1.0" encoding="UTF-8"?>
<svg version="1.1" xmlns="http://www.w3.org/2000/svg" width="100" height="100">
<path d="M0 0 C0.71446289 -0.0087616 1.42892578 -0.01752319 2.16503906 -0.02655029 C4.51690151 -0.04848224 6.86686987 -0.03401601 9.21875 -0.01708984 C10.85872761 -0.02045982 12.49870279 -0.02531396 14.13867188 -0.03158569 C17.57185703 -0.03894853 21.00439072 -0.02827126 24.4375 -0.00488281 C28.83284357 0.02360553 33.22666065 0.00719826 37.62194824 -0.02274513 C41.00727794 -0.04083458 44.39224719 -0.03505273 47.77758789 -0.02210617 C49.39786969 -0.01877666 51.01818448 -0.02284327 52.63842773 -0.03450394 C54.90566356 -0.04724101 57.17044642 -0.02780132 59.4375 0 C60.72591797 0.00397797 62.01433594 0.00795593 63.34179688 0.01205444 C67.69943743 0.83135671 69.15094222 2.05802415 71.71875 5.64697266 C72.35366821 9.02392578 72.35366821 9.02392578 72.36572266 12.92822266 C72.37448425 13.64268555 72.38324585 14.35714844 72.39227295 15.09326172 C72.4142049 17.44512416 72.39973866 19.79509252 72.3828125 22.14697266 C72.38618248 23.78695027 72.39103661 25.42692545 72.39730835 27.06689453 C72.40467119 30.50007969 72.39399392 33.93261337 72.37060547 37.36572266 C72.34211713 41.76106623 72.35852439 46.15488331 72.38846779 50.5501709 C72.40655723 53.9355006 72.40077539 57.32046984 72.38782883 60.70581055 C72.38449932 62.32609234 72.38856592 63.94640713 72.40022659 65.56665039 C72.41296367 67.83388621 72.39352397 70.09866907 72.36572266 72.36572266 C72.35975571 74.29834961 72.35975571 74.29834961 72.35366821 76.27001953 C71.53436595 80.62766008 70.3076985 82.07916487 66.71875 84.64697266 C63.34179687 85.28189087 63.34179687 85.28189087 59.4375 85.29394531 C58.72303711 85.30270691 58.00857422 85.31146851 57.27246094 85.32049561 C54.92059849 85.34242756 52.57063013 85.32796132 50.21875 85.31103516 C48.57877239 85.31440513 46.93879721 85.31925927 45.29882812 85.32553101 C41.86564297 85.33289384 38.43310928 85.32221657 35 85.29882812 C30.60465643 85.27033979 26.21083935 85.28674705 21.81555176 85.31669044 C18.43022206 85.33477989 15.04525281 85.32899804 11.65991211 85.31605148 C10.03963031 85.31272198 8.41931552 85.31678858 6.79907227 85.32844925 C4.53183644 85.34118632 2.26705358 85.32174663 0 85.29394531 C-1.28841797 85.28996735 -2.57683594 85.28598938 -3.90429688 85.28189087 C-8.26193743 84.4625886 -9.71344222 83.23592116 -12.28125 79.64697266 C-12.91616821 76.27001953 -12.91616821 76.27001953 -12.92822266 72.36572266 C-12.93698425 71.65125977 -12.94574585 70.93679687 -12.95477295 70.20068359 C-12.9767049 67.84882115 -12.96223866 65.49885279 -12.9453125 63.14697266 C-12.94868248 61.50699504 -12.95353661 59.86701987 -12.95980835 58.22705078 C-12.96717119 54.79386562 -12.95649392 51.36133194 -12.93310547 47.92822266 C-12.90461713 43.53287909 -12.92102439 39.139062 -12.95096779 34.74377441 C-12.96905723 31.35844471 -12.96327539 27.97347547 -12.95032883 24.58813477 C-12.94699932 22.96785297 -12.95106592 21.34753818 -12.96272659 19.72729492 C-12.97546367 17.4600591 -12.95602397 15.19527624 -12.92822266 12.92822266 C-12.92424469 11.63980469 -12.92026672 10.35138672 -12.91616821 9.02392578 C-11.51600901 1.57686898 -7.00544459 0.02162918 0 0 Z M-7.28125 7.64697266 C-8.37096048 10.9161041 -8.42131248 13.34180917 -8.44238281 16.78320312 C-8.45199036 18.0481662 -8.4615979 19.31312927 -8.47149658 20.61642456 C-8.4763445 21.99900126 -8.48062335 23.38158005 -8.484375 24.76416016 C-8.49012891 26.18279014 -8.49588661 27.6014201 -8.50164795 29.02005005 C-8.51214889 31.99416465 -8.51799753 34.96825229 -8.52148438 37.94238281 C-8.52696822 41.74776555 -8.55099732 45.55279033 -8.57945633 49.35806084 C-8.59810715 52.28863558 -8.60328959 55.21912449 -8.60482025 58.14975357 C-8.60784165 59.55234866 -8.61585292 60.95494242 -8.62900543 62.3574791 C-8.64611554 64.32223141 -8.64233369 66.28713179 -8.63769531 68.25195312 C-8.64134094 69.36875458 -8.64498657 70.48555603 -8.64874268 71.63619995 C-8.23150484 75.05452191 -7.3738629 76.92906097 -5.28125 79.64697266 C-2.01211856 80.73668314 0.41358651 80.78703514 3.85498047 80.80810547 C5.11994354 80.81771301 6.38490662 80.82732056 7.6882019 80.83721924 C9.0707786 80.84206716 10.45335739 80.846346 11.8359375 80.85009766 C13.25456748 80.85585156 14.67319744 80.86160927 16.09182739 80.86737061 C19.06594199 80.87787155 22.04002963 80.88372018 25.01416016 80.88720703 C28.81954289 80.89269088 32.62456767 80.91671998 36.42983818 80.94517899 C39.36041292 80.9638298 42.29090184 80.96901225 45.22153091 80.97054291 C46.624126 80.97356431 48.02671976 80.98157558 49.42925644 80.99472809 C51.39400875 81.0118382 53.35890913 81.00805635 55.32373047 81.00341797 C56.99893265 81.00888641 56.99893265 81.00888641 58.70797729 81.01446533 C62.12629925 80.5972275 64.00083831 79.73958556 66.71875 77.64697266 C67.80846048 74.37784121 67.85881248 71.95213614 67.87988281 68.51074219 C67.88949036 67.24577911 67.8990979 65.98081604 67.90899658 64.67752075 C67.9138445 63.29494406 67.91812335 61.91236526 67.921875 60.52978516 C67.92762891 59.11115518 67.93338661 57.69252521 67.93914795 56.27389526 C67.94964889 53.29978066 67.95549753 50.32569303 67.95898438 47.3515625 C67.96446822 43.54617976 67.98849732 39.74115499 68.01695633 35.93588448 C68.03560715 33.00530973 68.04078959 30.07482082 68.04232025 27.14419174 C68.04534165 25.74159665 68.05335292 24.33900289 68.06650543 22.93646622 C68.08361554 20.97171391 68.07983369 19.00681352 68.07519531 17.04199219 C68.07884094 15.92519073 68.08248657 14.80838928 68.08624268 13.65774536 C67.66900484 10.2394234 66.8113629 8.36488434 64.71875 5.64697266 C61.44961856 4.55726218 59.02391349 4.50691017 55.58251953 4.48583984 C54.31755646 4.4762323 53.05259338 4.46662476 51.7492981 4.45672607 C50.3667214 4.45187815 48.98414261 4.44759931 47.6015625 4.44384766 C46.18293252 4.43809375 44.76430256 4.43233605 43.34567261 4.42657471 C40.37155801 4.41607377 37.39747037 4.41022513 34.42333984 4.40673828 C30.61795711 4.40125444 26.81293233 4.37722534 23.00766182 4.34876633 C20.07708708 4.33011551 17.14659816 4.32493307 14.21596909 4.3234024 C12.813374 4.320381 11.41078024 4.31236974 10.00824356 4.29921722 C8.04349125 4.28210711 6.07859087 4.28588896 4.11376953 4.29052734 C2.99696808 4.28688171 1.88016663 4.28323608 0.72952271 4.27947998 C-2.68879925 4.69671781 -4.56333831 5.55435975 -7.28125 7.64697266 Z " fill="#000000" transform="translate(20.28125,7.35302734375)"/>
<path d="M0 0 C0.66 0 1.32 0 2 0 C3.17495143 2.93425371 4.33850852 5.87289513 5.5 8.8125 C5.83386719 9.64587891 6.16773438 10.47925781 6.51171875 11.33789062 C6.98544922 12.54155273 6.98544922 12.54155273 7.46875 13.76953125 C7.76201172 14.50792236 8.05527344 15.24631348 8.35742188 16.00708008 C9 18 9 18 9 21 C9.57105469 20.98839844 10.14210937 20.97679688 10.73046875 20.96484375 C17.86261249 20.88547172 24.8976936 21.37660007 32 22 C29.13637353 25.82043058 26.0773188 28.80374227 22.375 31.8125 C21.41335937 32.60269531 20.45171875 33.39289062 19.4609375 34.20703125 C17 36 17 36 15 36 C15.15670166 36.55461914 15.31340332 37.10923828 15.47485352 37.68066406 C16.1808514 40.20106861 16.87179745 42.72536308 17.5625 45.25 C17.9327832 46.55904297 17.9327832 46.55904297 18.31054688 47.89453125 C18.53935547 48.73886719 18.76816406 49.58320312 19.00390625 50.453125 C19.21861572 51.22817383 19.4333252 52.00322266 19.65454102 52.80175781 C20.0298967 55.19024018 19.74681558 56.720964 19 59 C18.51120361 58.65630371 18.02240723 58.31260742 17.51879883 57.95849609 C15.29607374 56.41140573 13.05501962 54.89323896 10.8125 53.375 C10.04357422 52.83359375 9.27464844 52.2921875 8.48242188 51.734375 C4.296153 48.71781566 4.296153 48.71781566 -0.59375 48.375 C-1.3878125 48.91125 -2.181875 49.4475 -3 50 C-3.55792236 50.3398291 -4.11584473 50.6796582 -4.69067383 51.02978516 C-6.59241953 52.18945316 -8.45277357 53.39922769 -10.3125 54.625 C-10.95767578 55.04523438 -11.60285156 55.46546875 -12.26757812 55.8984375 C-13.84760724 56.92838241 -15.42416047 57.96365628 -17 59 C-18.11475495 55.65573514 -17.87077674 54.65151095 -17.00390625 51.33203125 C-16.77509766 50.43935547 -16.54628906 49.54667969 -16.31054688 48.62695312 C-16.06369141 47.69818359 -15.81683594 46.76941406 -15.5625 45.8125 C-15.31951172 44.87212891 -15.07652344 43.93175781 -14.82617188 42.96289062 C-14.22479053 40.63990779 -13.61581254 38.31919117 -13 36 C-13.88993652 35.58439819 -13.88993652 35.58439819 -14.79785156 35.16040039 C-16.86407151 34.07162618 -18.45956664 32.93835819 -20.234375 31.43359375 C-20.80800781 30.94826172 -21.38164062 30.46292969 -21.97265625 29.96289062 C-22.55917969 29.45951172 -23.14570313 28.95613281 -23.75 28.4375 C-24.35199219 27.93025391 -24.95398438 27.42300781 -25.57421875 26.90039062 C-27.07140728 25.62557363 -28.53859588 24.31568608 -30 23 C-30 22.67 -30 22.34 -30 22 C-22.31516461 21.32546899 -14.71589817 20.8432436 -7 21 C-6.89816406 20.34644531 -6.79632813 19.69289063 -6.69140625 19.01953125 C-5.7920704 15.09192327 -4.38367698 11.44219151 -2.9375 7.6875 C-2.65583984 6.94693359 -2.37417969 6.20636719 -2.08398438 5.44335938 C-1.39281425 3.62757345 -0.69688311 1.81360101 0 0 Z M0 15 C-1.32 18.3 -2.64 21.6 -4 25 C-10.435 25.495 -10.435 25.495 -17 26 C-16.236875 26.763125 -15.47375 27.52625 -14.6875 28.3125 C-13.20818663 29.79181337 -11.73807188 31.28133021 -10.3125 32.8125 C-9.04781729 34.22363777 -9.04781729 34.22363777 -7 34 C-7.99 38.29 -8.98 42.58 -10 47 C-5.26305389 45.3258065 -5.26305389 45.3258065 -2.5 43.25 C0 42 0 42 2.5 42.625 C4.25024371 43.58763404 5.97817298 44.59145343 7.6875 45.625 C9.83811106 47.17035846 9.83811106 47.17035846 12 47 C11.01 42.71 10.02 38.42 9 34 C10.32 33.34 11.64 32.68 13 32 C15.1206819 30.43867227 17.02408546 28.7513788 19 27 C19 26.67 19 26.34 19 26 C14.71 25.67 10.42 25.34 6 25 C4.68 21.7 3.36 18.4 2 15 C1.34 15 0.68 15 0 15 Z " fill="#000000" transform="translate(49,19)"/>
</svg>
