<?xml version="1.0" encoding="UTF-8"?>
<svg version="1.1" xmlns="http://www.w3.org/2000/svg" width="100" height="100">
<path d="M0 0 C0.71446289 -0.0087616 1.42892578 -0.01752319 2.16503906 -0.02655029 C4.51690151 -0.04848224 6.86686987 -0.03401601 9.21875 -0.01708984 C10.85872761 -0.02045982 12.49870279 -0.02531396 14.13867188 -0.03158569 C17.57185703 -0.03894853 21.00439072 -0.02827126 24.4375 -0.00488281 C28.83284357 0.02360553 33.22666065 0.00719826 37.62194824 -0.02274513 C41.00727794 -0.04083458 44.39224719 -0.03505273 47.77758789 -0.02210617 C49.39786969 -0.01877666 51.01818448 -0.02284327 52.63842773 -0.03450394 C54.90566356 -0.04724101 57.17044642 -0.02780132 59.4375 0 C60.72591797 0.00397797 62.01433594 0.00795593 63.34179688 0.01205444 C67.69943743 0.83135671 69.15094222 2.05802415 71.71875 5.64697266 C72.35366821 9.02392578 72.35366821 9.02392578 72.36572266 12.92822266 C72.37448425 13.64268555 72.38324585 14.35714844 72.39227295 15.09326172 C72.4142049 17.44512416 72.39973866 19.79509252 72.3828125 22.14697266 C72.38618248 23.78695027 72.39103661 25.42692545 72.39730835 27.06689453 C72.40467119 30.50007969 72.39399392 33.93261337 72.37060547 37.36572266 C72.34211713 41.76106623 72.35852439 46.15488331 72.38846779 50.5501709 C72.40655723 53.9355006 72.40077539 57.32046984 72.38782883 60.70581055 C72.38449932 62.32609234 72.38856592 63.94640713 72.40022659 65.56665039 C72.41296367 67.83388621 72.39352397 70.09866907 72.36572266 72.36572266 C72.35975571 74.29834961 72.35975571 74.29834961 72.35366821 76.27001953 C71.53436595 80.62766008 70.3076985 82.07916487 66.71875 84.64697266 C63.34179687 85.28189087 63.34179687 85.28189087 59.4375 85.29394531 C58.72303711 85.30270691 58.00857422 85.31146851 57.27246094 85.32049561 C54.92059849 85.34242756 52.57063013 85.32796132 50.21875 85.31103516 C48.57877239 85.31440513 46.93879721 85.31925927 45.29882812 85.32553101 C41.86564297 85.33289384 38.43310928 85.32221657 35 85.29882812 C30.60465643 85.27033979 26.21083935 85.28674705 21.81555176 85.31669044 C18.43022206 85.33477989 15.04525281 85.32899804 11.65991211 85.31605148 C10.03963031 85.31272198 8.41931552 85.31678858 6.79907227 85.32844925 C4.53183644 85.34118632 2.26705358 85.32174663 0 85.29394531 C-1.28841797 85.28996735 -2.57683594 85.28598938 -3.90429688 85.28189087 C-8.26193743 84.4625886 -9.71344222 83.23592116 -12.28125 79.64697266 C-12.91616821 76.27001953 -12.91616821 76.27001953 -12.92822266 72.36572266 C-12.93698425 71.65125977 -12.94574585 70.93679687 -12.95477295 70.20068359 C-12.9767049 67.84882115 -12.96223866 65.49885279 -12.9453125 63.14697266 C-12.94868248 61.50699504 -12.95353661 59.86701987 -12.95980835 58.22705078 C-12.96717119 54.79386562 -12.95649392 51.36133194 -12.93310547 47.92822266 C-12.90461713 43.53287909 -12.92102439 39.139062 -12.95096779 34.74377441 C-12.96905723 31.35844471 -12.96327539 27.97347547 -12.95032883 24.58813477 C-12.94699932 22.96785297 -12.95106592 21.34753818 -12.96272659 19.72729492 C-12.97546367 17.4600591 -12.95602397 15.19527624 -12.92822266 12.92822266 C-12.92424469 11.63980469 -12.92026672 10.35138672 -12.91616821 9.02392578 C-11.51600901 1.57686898 -7.00544459 0.02162918 0 0 Z M28.71875 19.64697266 C27.8792618 21.74869133 27.04735344 23.85343891 26.21875 25.95947266 C25.52265625 27.71710937 25.52265625 27.71710937 24.8125 29.51025391 C23.55412487 32.56543713 23.55412487 32.56543713 23.71875 35.64697266 C17.77875 35.64697266 11.83875 35.64697266 5.71875 35.64697266 C8.93766631 39.67061805 10.03203617 41.0281513 14.03125 43.39697266 C17.60288225 45.98789698 17.60288225 45.98789698 18.08203125 48.71337891 C17.82746731 51.11295705 17.33970393 53.31553828 16.71875 55.64697266 C16.36340447 57.33422481 16.00919277 59.02171625 15.65625 60.70947266 C15.34860947 62.02312018 15.03794939 63.33608584 14.71875 64.64697266 C19.2721888 63.01158267 22.62707359 60.61875243 26.4375 57.69384766 C28.71875 56.64697266 28.71875 56.64697266 31.20703125 57.27978516 C33.72570035 58.6507559 36.06054651 60.12320993 38.40625 61.77197266 C41.30042089 64.01023453 41.30042089 64.01023453 44.71875 64.64697266 C44.5021875 63.76654297 44.285625 62.88611328 44.0625 61.97900391 C43.7840625 60.81755859 43.505625 59.65611328 43.21875 58.45947266 C42.9403125 57.31091797 42.661875 56.16236328 42.375 54.97900391 C41.24422445 49.23762566 41.24422445 49.23762566 41.71875 46.64697266 C44.08984375 44.26025391 44.08984375 44.26025391 47.15625 41.95947266 C51.00883353 39.28802783 51.00883353 39.28802783 53.71875 35.64697266 C47.77875 35.64697266 41.83875 35.64697266 35.71875 35.64697266 C35.38875 33.99697266 35.05875 32.34697266 34.71875 30.64697266 C34.06389786 28.69819581 33.37556731 26.76038675 32.65625 24.83447266 C32.29402344 23.85865234 31.93179688 22.88283203 31.55859375 21.87744141 C31.14287109 20.77335937 31.14287109 20.77335937 30.71875 19.64697266 C30.05875 19.64697266 29.39875 19.64697266 28.71875 19.64697266 Z " fill="#000000" transform="translate(20.28125,7.35302734375)"/>
</svg>
