<svg width="24" height="24" viewBox="0 0 24 24" fill="none" xmlns="http://www.w3.org/2000/svg">
<path d="M5.99979 11.31C5.99979 11.3 5.99979 11.3 5.99979 11.29C6.00979 10.25 6.65978 9.36999 7.64978 9.05999L13.9298 7.10999C14.7798 6.84999 15.6898 7.06999 16.3098 7.69999C16.9298 8.31999 17.1498 9.21999 16.8898 10.06L14.9398 16.35C14.6298 17.35 13.7498 18 12.7098 18.01C11.6698 18.02 10.7898 17.39 10.4598 16.4L9.87979 14.68C9.78979 14.42 9.59979 14.23 9.34979 14.14L7.61978 13.55C6.62978 13.22 5.99979 12.34 5.99979 11.31ZM15.4998 9.33998C15.4998 9.03998 15.3398 8.83999 15.2498 8.74999C15.0198 8.51999 14.6898 8.43998 14.3798 8.53998L8.09979 10.49C7.54979 10.66 7.49979 11.15 7.49979 11.3C7.50979 11.42 7.53978 11.93 8.08978 12.11L9.8198 12.7C10.5098 12.93 11.0698 13.49 11.2998 14.18L11.8798 15.9C11.8798 15.9 11.8798 15.9 11.8798 15.91C12.0598 16.46 12.5498 16.5 12.6898 16.5C12.8398 16.5 13.3298 16.45 13.4998 15.9L15.4498 9.60999C15.4898 9.50999 15.4998 9.41998 15.4998 9.33998Z" fill="#353535"/>
<path d="M1.25 12C1.25 6.07 6.07 1.25 12 1.25C17.93 1.25 22.75 6.07 22.75 12C22.75 17.93 17.93 22.75 12 22.75C6.07 22.75 1.25 17.93 1.25 12ZM21.25 12C21.25 6.9 17.1 2.75 12 2.75C6.9 2.75 2.75 6.9 2.75 12C2.75 17.1 6.9 21.25 12 21.25C17.1 21.25 21.25 17.1 21.25 12Z" fill="#353535"/>
</svg>
