<svg width="24" height="24" viewBox="0 0 24 24" fill="none" xmlns="http://www.w3.org/2000/svg">
<path d="M19.5001 19.75H15.5001C15.0901 19.75 14.7501 19.41 14.7501 19C14.7501 18.59 15.0901 18.25 15.5001 18.25H19.5001C19.9101 18.25 20.2501 18.59 20.2501 19C20.2501 19.41 19.9101 19.75 19.5001 19.75Z" fill="#353535"/>
<path d="M12.1502 11.62C12.1202 11.62 12.1002 11.62 12.0702 11.62C12.0102 11.61 11.9502 11.62 11.8902 11.62C8.99017 11.53 6.80017 9.25 6.80017 6.44C6.80017 3.58 9.13017 1.25 11.9902 1.25C14.8502 1.25 17.1802 3.58 17.1802 6.44C17.1702 9.25 14.9702 11.53 12.1802 11.62C12.1702 11.62 12.1602 11.62 12.1502 11.62ZM11.9902 2.75C9.96017 2.75 8.30017 4.41 8.30017 6.44C8.30017 8.44 9.86017 10.05 11.8502 10.12C11.9102 10.11 12.0402 10.11 12.1702 10.12C14.1302 10.03 15.6702 8.42 15.6802 6.44C15.6802 4.41 14.0202 2.75 11.9902 2.75Z" fill="#353535"/>
<path d="M11.9902 22.5601C9.95016 22.5601 8.02016 22.0301 6.56016 21.0501C5.17016 20.1201 4.41016 18.8501 4.41016 17.4801C4.41016 16.1101 5.18016 14.8501 6.56016 13.9301C9.55016 11.9301 14.4102 11.9301 17.4002 13.9301C17.7402 14.1601 17.8402 14.6301 17.6102 14.9701C17.3802 15.3201 16.9102 15.4101 16.5702 15.1801C14.0802 13.5201 9.88016 13.5201 7.39016 15.1801C6.43016 15.8201 5.91016 16.6301 5.91016 17.4801C5.91016 18.3301 6.43016 19.1601 7.39016 19.8001C8.60016 20.6101 10.2302 21.0501 11.9802 21.0501C12.3902 21.0501 12.7302 21.3901 12.7302 21.8001C12.7302 22.2101 12.4002 22.5601 11.9902 22.5601Z" fill="#353535"/>
</svg>
