<svg width="24" height="24" viewBox="0 0 24 24" fill="none" xmlns="http://www.w3.org/2000/svg">
<path d="M18.5 20.25H14.5C14.09 20.25 13.75 19.91 13.75 19.5C13.75 19.09 14.09 18.75 14.5 18.75H18.5C18.91 18.75 19.25 19.09 19.25 19.5C19.25 19.91 18.91 20.25 18.5 20.25Z" fill="#353535"/>
<path d="M16.5 22.25C16.09 22.25 15.75 21.91 15.75 21.5V17.5C15.75 17.09 16.09 16.75 16.5 16.75C16.91 16.75 17.25 17.09 17.25 17.5V21.5C17.25 21.91 16.91 22.25 16.5 22.25Z" fill="#353535"/>
<path d="M12.1601 11.62C12.1301 11.62 12.1101 11.62 12.0801 11.62C12.0301 11.61 11.9601 11.61 11.9001 11.62C9.00007 11.53 6.81007 9.25 6.81007 6.44C6.80007 5.06 7.34007 3.76 8.32007 2.78C9.30007 1.8 10.6001 1.25 11.9901 1.25C14.8501 1.25 17.1801 3.58 17.1801 6.44C17.1801 9.25 14.9901 11.52 12.1901 11.62C12.1801 11.62 12.1701 11.62 12.1601 11.62ZM11.9901 2.75C11.0001 2.75 10.0801 3.14 9.38007 3.83C8.69007 4.53 8.31007 5.45 8.31007 6.43C8.31007 8.43 9.87007 10.05 11.8601 10.11C11.9201 10.1 12.0501 10.1 12.1801 10.11C14.1501 10.02 15.6801 8.41 15.6801 6.43C15.6801 4.41 14.0201 2.75 11.9901 2.75Z" fill="#353535"/>
<path d="M11.99 22.5601C9.95003 22.5601 8.02003 22.0301 6.56003 21.0501C5.17003 20.1201 4.41003 18.8501 4.41003 17.4801C4.41003 16.1101 5.18003 14.8501 6.56003 13.9301C9.55003 11.9301 14.41 11.9301 17.4 13.9301C17.74 14.1601 17.84 14.6301 17.61 14.9701C17.38 15.3201 16.91 15.4101 16.57 15.1801C14.08 13.5201 9.88003 13.5201 7.39003 15.1801C6.43003 15.8201 5.91003 16.6301 5.91003 17.4801C5.91003 18.3301 6.43003 19.1601 7.39003 19.8001C8.60003 20.6101 10.23 21.0501 11.98 21.0501C12.39 21.0501 12.73 21.3901 12.73 21.8001C12.73 22.2101 12.4 22.5601 11.99 22.5601Z" fill="#353535"/>
</svg>
