<svg width="40" height="40" viewBox="0 0 40 40" fill="none" xmlns="http://www.w3.org/2000/svg">
<path d="M36.6663 20.0002C36.6663 29.2052 29.2047 36.6668 19.9997 36.6668C10.7947 36.6668 3.33301 29.2052 3.33301 20.0002C3.33301 10.7952 10.7947 3.3335 19.9997 3.3335" stroke="#E91E63" stroke-width="2.5" stroke-linecap="round" stroke-linejoin="round"/>
<path d="M31.6659 7.89355L31.9517 8.77355H32.8767L32.1284 9.31689L32.4142 10.1969L31.6659 9.65355L30.9176 10.1969L31.2034 9.31689L30.4551 8.77355H31.3801L31.6659 7.89355Z" stroke="#E91E63" stroke-width="2.5"/>
<path d="M25 15.8335C25 13.0721 22.7614 10.8335 20 10.8335C17.2386 10.8335 15 13.0721 15 15.8335V25.8335C15 28.5949 17.2386 30.8335 20 30.8335C22.7614 30.8335 25 28.5949 25 25.8335V15.8335Z" fill="#FBD2E0" stroke="#E91E63" stroke-width="2.5" stroke-linecap="round" stroke-linejoin="round"/>
<path d="M14.9997 20.8335C13.333 20.8335 10.833 22.5985 10.833 25.8335V33.9868M24.9997 20.8335C26.6663 20.8335 29.1663 22.5985 29.1663 25.8335V33.7502" stroke="#E91E63" stroke-width="2.5" stroke-linecap="round" stroke-linejoin="round"/>
</svg>
