<svg width="40" height="40" viewBox="0 0 40 40" fill="none" xmlns="http://www.w3.org/2000/svg">
<path d="M13.334 12.5C13.334 11.837 13.5974 11.2011 14.0662 10.7322C14.5351 10.2634 15.1709 10 15.834 10H30.834C31.497 10 32.1329 10.2634 32.6017 10.7322C33.0706 11.2011 33.334 11.837 33.334 12.5V27.5C33.334 28.163 33.0706 28.7989 32.6017 29.2678C32.1329 29.7366 31.497 30 30.834 30H15.834C15.1709 30 14.5351 29.7366 14.0662 29.2678C13.5974 28.7989 13.334 28.163 13.334 27.5V12.5Z" fill="#C5E7E4" stroke="#009688" stroke-width="2.5" stroke-linejoin="round"/>
<path d="M6.66699 3.3335V36.6668M6.66699 15.8335H13.3337M6.66699 24.1668H13.3337M18.3337 20.0002H28.3337M23.3337 15.0002V25.0002" stroke="#009688" stroke-width="2.5" stroke-linecap="round" stroke-linejoin="round"/>
</svg>
