<svg width="40" height="40" viewBox="0 0 40 40" fill="none" xmlns="http://www.w3.org/2000/svg">
<path d="M15.8337 24.9997V27.4997C15.8337 29.0468 15.2191 30.5305 14.1251 31.6245C13.0312 32.7184 11.5474 33.333 10.0003 33.333V33.333C8.45323 33.333 6.9695 32.7184 5.87554 31.6245C4.78157 30.5305 4.16699 29.0468 4.16699 27.4997V15.833M24.167 24.9997V27.4997C24.167 29.0468 24.7816 30.5305 25.8755 31.6245C26.9695 32.7184 28.4532 33.333 30.0003 33.333V33.333C31.5474 33.333 33.0312 32.7184 34.1251 31.6245C35.2191 30.5305 35.8337 29.0468 35.8337 27.4997V15.833" stroke="#2196F3" stroke-width="2.5" stroke-linecap="round" stroke-linejoin="round"/>
<path d="M26.667 6.6665H13.3337C8.27105 6.6665 4.16699 10.7706 4.16699 15.8332C4.16699 20.8958 8.27105 24.9998 13.3337 24.9998H26.667C31.7296 24.9998 35.8337 20.8958 35.8337 15.8332C35.8337 10.7706 31.7296 6.6665 26.667 6.6665Z" fill="#D3EAFD" stroke="#2196F3" stroke-width="2.5"/>
<path d="M17.5007 15.8333H10.834M14.1673 12.5V19.1667" stroke="#2196F3" stroke-width="2.5" stroke-linecap="round" stroke-linejoin="round"/>
<path d="M30.0003 14.1667C30.0003 13.2462 29.2541 12.5 28.3337 12.5C27.4132 12.5 26.667 13.2462 26.667 14.1667C26.667 15.0871 27.4132 15.8333 28.3337 15.8333C29.2541 15.8333 30.0003 15.0871 30.0003 14.1667Z" fill="#2196F3"/>
<path d="M26.6673 18.3332C26.6673 17.4127 25.9211 16.6665 25.0007 16.6665C24.0802 16.6665 23.334 17.4127 23.334 18.3332C23.334 19.2536 24.0802 19.9998 25.0007 19.9998C25.9211 19.9998 26.6673 19.2536 26.6673 18.3332Z" fill="#2196F3"/>
</svg>
