<svg width="40" height="40" viewBox="0 0 40 40" fill="none" xmlns="http://www.w3.org/2000/svg">
<path d="M36.6663 31.6667V15H29.9997V25.8333H9.99967V15H3.33301V31.6667H36.6663Z" fill="#CAE7CB" stroke="#4CAF50" stroke-width="2.5" stroke-linecap="round" stroke-linejoin="round"/>
<path d="M30 5H10V25.8333H30V5Z" stroke="#4CAF50" stroke-width="2.5" stroke-linecap="round" stroke-linejoin="round"/>
<path fill-rule="evenodd" clip-rule="evenodd" d="M8.33333 36.6665C9.21739 36.6665 10.0652 36.3153 10.6904 35.6902C11.3155 35.0651 11.6667 34.2172 11.6667 33.3332C10.7525 33.3365 5.58333 33.3332 5 33.3332C5 34.2172 5.35119 35.0651 5.97631 35.6902C6.60143 36.3153 7.44928 36.6665 8.33333 36.6665ZM31.6667 36.6665C32.5507 36.6665 33.3986 36.3153 34.0237 35.6902C34.6488 35.0651 35 34.2172 35 33.3332C33.4125 33.3273 29.0525 33.3332 28.3333 33.3332C28.3333 34.2172 28.6845 35.0651 29.3096 35.6902C29.9348 36.3153 30.7826 36.6665 31.6667 36.6665Z" fill="#4CAF50"/>
</svg>
