<svg width="40" height="40" viewBox="0 0 40 40" fill="none" xmlns="http://www.w3.org/2000/svg">
<path d="M6.66602 9.1665C6.66602 8.50346 6.92941 7.86758 7.39825 7.39874C7.86709 6.9299 8.50297 6.6665 9.16602 6.6665H30.8327C31.4957 6.6665 32.1316 6.9299 32.6004 7.39874C33.0693 7.86758 33.3327 8.50346 33.3327 9.1665V26.6665H6.66602V9.1665Z" stroke="#F44336" stroke-width="2.5" stroke-linejoin="round"/>
<path d="M6.66602 9.1665C6.66602 8.50346 6.92941 7.86758 7.39825 7.39874C7.86709 6.9299 8.50297 6.6665 9.16602 6.6665H30.8327C31.4957 6.6665 32.1316 6.9299 32.6004 7.39874C33.0693 7.86758 33.3327 8.50346 33.3327 9.1665V26.6665H6.66602V9.1665Z" stroke="black" stroke-opacity="0.2" stroke-width="2.5" stroke-linejoin="round"/>
<path d="M3.33301 26.6665H36.6663V28.3332C36.6663 29.6593 36.1396 30.931 35.2019 31.8687C34.2642 32.8064 32.9924 33.3332 31.6663 33.3332H8.33301C7.00693 33.3332 5.73516 32.8064 4.79747 31.8687C3.85979 30.931 3.33301 29.6593 3.33301 28.3332V26.6665Z" fill="#FDF1D8" stroke="#F44336" stroke-width="2.5" stroke-linejoin="round"/>
</svg>
