<svg width="40" height="40" viewBox="0 0 40 40" fill="none" xmlns="http://www.w3.org/2000/svg">
<path fill-rule="evenodd" clip-rule="evenodd" d="M11.2493 26.6667C11.8019 26.6667 12.3318 26.4472 12.7225 26.0565C13.1132 25.6658 13.3327 25.1359 13.3327 24.5833C13.3327 24.0308 13.1132 23.5009 12.7225 23.1102C12.3318 22.7195 11.8019 22.5 11.2493 22.5C10.6968 22.5 10.1669 22.7195 9.77621 23.1102C9.38551 23.5009 9.16602 24.0308 9.16602 24.5833C9.16602 25.1359 9.38551 25.6658 9.77621 26.0565C10.1669 26.4472 10.6968 26.6667 11.2493 26.6667ZM28.7493 26.6667C29.3019 26.6667 29.8318 26.4472 30.2225 26.0565C30.6132 25.6658 30.8327 25.1359 30.8327 24.5833C30.8327 24.0308 30.6132 23.5009 30.2225 23.1102C29.8318 22.7195 29.3019 22.5 28.7493 22.5C28.1968 22.5 27.6669 22.7195 27.2762 23.1102C26.8855 23.5009 26.666 24.0308 26.666 24.5833C26.666 25.1359 26.8855 25.6658 27.2762 26.0565C27.6669 26.4472 28.1968 26.6667 28.7493 26.6667Z" fill="#0063BF"/>
<path d="M5.83301 30.8333C5.16997 30.8333 4.53408 30.5699 4.06524 30.1011C3.5964 29.6323 3.33301 28.9964 3.33301 28.3333V20.5917C3.33296 19.6627 3.59171 18.7521 4.08025 17.962C4.56878 17.1718 5.26777 16.5334 6.09884 16.1183L6.66717 15.835L8.59217 7.57667C8.76294 6.84402 9.17652 6.19068 9.76567 5.72287C10.3548 5.25506 11.0849 5.0003 11.8372 5H28.2438C29.0017 4.99996 29.7369 5.25815 30.3283 5.732C30.9197 6.20585 31.332 6.86707 31.4972 7.60667L33.3347 15.8342L33.9013 16.1175C34.7323 16.5327 35.4311 17.1712 35.9195 17.9613C36.4078 18.7514 36.6665 19.662 36.6663 20.5908V28.3333C36.6663 28.9964 36.4029 29.6323 35.9341 30.1011C35.4653 30.5699 34.8294 30.8333 34.1663 30.8333H32.5022V31.6667C32.5022 32.5511 32.1509 33.3992 31.5255 34.0246C30.9001 34.6499 30.052 35.0012 29.1676 35.0012C28.2832 35.0012 27.435 34.6499 26.8097 34.0246C26.1843 33.3992 25.833 32.5511 25.833 31.6667V30.8333H14.1663V31.6667C14.1663 32.5507 13.8152 33.3986 13.19 34.0237C12.5649 34.6488 11.7171 35 10.833 35C9.94895 35 9.10111 34.6488 8.47599 34.0237C7.85086 33.3986 7.49967 32.5507 7.49967 31.6667V30.8333H5.83301Z" fill="#B2D0EB" stroke="#0063BF" stroke-width="2.5" stroke-linejoin="round"/>
<path d="M11.666 18.3335H28.3327L26.956 12.1385C26.8737 11.7684 26.6677 11.4374 26.372 11.2001C26.0763 10.9629 25.7085 10.8336 25.3293 10.8335H14.6693C14.2902 10.8336 13.9224 10.9629 13.6267 11.2001C13.331 11.4374 13.125 11.7684 13.0427 12.1385L11.666 18.3335Z" fill="#B2D0EB" stroke="#0063BF" stroke-width="2.5" stroke-linejoin="round"/>
</svg>
