<svg width="40" height="40" viewBox="0 0 40 40" fill="none" xmlns="http://www.w3.org/2000/svg">
<path d="M4.16699 5.8335H13.3337C15.1018 5.8335 16.7975 6.53587 18.0477 7.78612C19.2979 9.03636 20.0003 10.7321 20.0003 12.5002V35.0002C20.0003 33.6741 19.4735 32.4023 18.5359 31.4646C17.5982 30.5269 16.3264 30.0002 15.0003 30.0002H4.16699V5.8335ZM35.8337 5.8335H26.667C24.8989 5.8335 23.2032 6.53587 21.9529 7.78612C20.7027 9.03636 20.0003 10.7321 20.0003 12.5002V35.0002C20.0003 33.6741 20.5271 32.4023 21.4648 31.4646C22.4025 30.5269 23.6742 30.0002 25.0003 30.0002H35.8337V5.8335Z" fill="#DEB7E4" stroke="#9C28B0" stroke-width="2.5" stroke-linejoin="round"/>
</svg>
