<?xml version="1.0" encoding="UTF-8"?>
<svg version="1.1" xmlns="http://www.w3.org/2000/svg" width="647" height="647">
<path d="M0 0 C0 0.66 0 1.32 0 2 C0.59296875 2.2578125 1.1859375 2.515625 1.796875 2.78125 C4.17660965 4.09769895 5.50978792 5.42580782 7.25 7.5 C7.77078125 8.1084375 8.2915625 8.716875 8.828125 9.34375 C10 11 10 11 10 13 C10.66 13 11.32 13 12 13 C14.87446024 23.85070547 15.47974139 33.91120235 15.375 45.0625 C15.37234131 45.88051086 15.36968262 46.69852173 15.36694336 47.5413208 C15.30770715 63.16866781 14.07189994 78.508507 12 94 C11.34 94 10.68 94 10 94 C9.95101563 94.81082031 9.90203125 95.62164062 9.8515625 96.45703125 C8.67252049 113.91905001 8.67252049 113.91905001 6.0234375 120.3828125 C4.37722392 124.59259531 3.73033633 129.00225111 2.87890625 133.4296875 C1.95080878 137.19982568 0.56092747 140.44793821 -1 144 C-2.12332202 147.12606225 -3.15698498 150.27979841 -4.1875 153.4375 C-4.46013672 154.26443359 -4.73277344 155.09136719 -5.01367188 155.94335938 C-5.67855197 157.96132879 -6.33966791 159.98053778 -7 162 C-7.66 162 -8.32 162 -9 162 C-9.12375 162.721875 -9.2475 163.44375 -9.375 164.1875 C-9.9904931 166.95721894 -10.88444374 169.3970354 -12 172 C-12.66 172 -13.32 172 -14 172 C-14.12375 172.721875 -14.2475 173.44375 -14.375 174.1875 C-14.9904931 176.95721894 -15.88444374 179.3970354 -17 182 C-17.66 182 -18.32 182 -19 182 C-19.12375 182.556875 -19.2475 183.11375 -19.375 183.6875 C-20.05976855 186.22114364 -20.99133763 188.57921032 -22 191 C-22.66 191 -23.32 191 -24 191 C-24.3403125 191.99 -24.3403125 191.99 -24.6875 193 C-26.3878815 196.88658628 -28.39623084 200.63679817 -31 204 C-31.66 204 -32.32 204 -33 204 C-33.268125 204.969375 -33.53625 205.93875 -33.8125 206.9375 C-34.204375 207.948125 -34.59625 208.95875 -35 210 C-35.99 210.33 -36.98 210.66 -38 211 C-38.309375 211.928125 -38.61875 212.85625 -38.9375 213.8125 C-40.11773482 217.35320447 -41.28635472 218.51895288 -44 221 C-45.2225424 222.44774758 -46.4441054 223.89644399 -47.6484375 225.359375 C-51.55693207 230.10379037 -55.46260484 234.8407211 -60 239 C-60.66 239 -61.32 239 -62 239 C-62.268125 239.639375 -62.53625 240.27875 -62.8125 240.9375 C-64 243 -64 243 -67 244 C-67.6711 245.33110744 -68.33726355 246.66470879 -69 248 C-70.8046875 249.5625 -70.8046875 249.5625 -72.875 251 C-75.86792855 253.14628029 -78.43573212 255.34730909 -81 258 C-92.66666667 268 -92.66666667 268 -97 268 C-97 268.66 -97 269.32 -97 270 C-99.90548882 272.04169485 -101.40142046 273 -105 273 C-105 273.66 -105 274.32 -105 275 C-111.625 278 -111.625 278 -115 278 C-115 278.66 -115 279.32 -115 280 C-115.66 280 -116.32 280 -117 280 C-115.53115269 283.87241564 -113.50293196 284.97198676 -110 287 C-110 287.66 -110 288.32 -110 289 C-109.34 289 -108.68 289 -108 289 C-105 293.38461538 -105 293.38461538 -105 296 C-104.34 296 -103.68 296 -103 296 C-102 299 -101 302 -100 305 C-99.65066406 305.91265625 -99.30132812 306.8253125 -98.94140625 307.765625 C-97.78138247 311.75110089 -97.50014316 315.49422609 -97.3125 319.625 C-97.27342529 320.41680664 -97.23435059 321.20861328 -97.1940918 322.02441406 C-96.83609507 330.60588315 -96.89486408 338.89214509 -100 347 C-100.44442791 348.72739904 -100.88104742 350.45681451 -101.3125 352.1875 C-102.89164575 358.11336652 -105.31014225 363.50333417 -108 369 C-108.66 369 -109.32 369 -110 369 C-110.103125 369.70769531 -110.20625 370.41539062 -110.3125 371.14453125 C-111.09062679 374.37641013 -112.36148842 376.80041109 -114 379.6875 C-114.53625 380.64011719 -115.0725 381.59273438 -115.625 382.57421875 C-116.07875 383.37472656 -116.5325 384.17523438 -117 385 C-117.33 385.66 -117.66 386.32 -118 387 C-118.66 387 -119.32 387 -120 387 C-120.103125 387.639375 -120.20625 388.27875 -120.3125 388.9375 C-120.539375 389.618125 -120.76625 390.29875 -121 391 C-121.99 391.33 -122.98 391.66 -124 392 C-124.67854706 393.66186525 -125.34319216 395.32942355 -126 397 C-127.953125 399.4296875 -127.953125 399.4296875 -130.25 401.875 C-133.00511823 404.83763514 -135.69371519 407.80205692 -138.25 410.9375 C-140.53973476 413.63429872 -142.75911551 415.46958232 -146 417 C-146.66 417 -147.32 417 -148 417 C-148.33 417.99 -148.66 418.98 -149 420 C-150.33333333 420.33333333 -151.66666667 420.66666667 -153 421 C-153.33 421.99 -153.66 422.98 -154 424 C-155.95890881 425.39300182 -157.9639118 426.72245446 -160 428 C-161.0828125 428.86625 -161.0828125 428.86625 -162.1875 429.75 C-164 431 -164 431 -167 431 C-167 431.66 -167 432.32 -167 433 C-172.75 436 -172.75 436 -175 436 C-175 436.66 -175 437.32 -175 438 C-177.97 438.99 -180.94 439.98 -184 441 C-184 441.66 -184 442.32 -184 443 C-190.59495317 445.79876116 -197.23933239 448.06496197 -204.1171875 450.0703125 C-206.89208166 450.86290854 -206.89208166 450.86290854 -208.83984375 452.01953125 C-212.29278277 453.58677844 -215.96014194 453.97495148 -219.6875 454.5625 C-224.75088559 454.95342875 -224.75088559 454.95342875 -229 457 C-234.47660468 458.01959261 -239.81199539 458.14627936 -245.37109375 458.1328125 C-246.25225357 458.13376923 -247.13341339 458.13472595 -248.04127502 458.13571167 C-249.89608838 458.13638906 -251.75090416 458.13456567 -253.60571289 458.13037109 C-256.42534786 458.12502305 -259.2448231 458.13032782 -262.06445312 458.13671875 C-263.87500035 458.13605777 -265.68554747 458.13477618 -267.49609375 458.1328125 C-268.32966904 458.13483673 -269.16324432 458.13686096 -270.02207947 458.13894653 C-275.10050739 458.11887762 -279.97245607 457.72578836 -285 457 C-285 456.34 -285 455.68 -285 455 C-286.5159375 455.0928125 -286.5159375 455.0928125 -288.0625 455.1875 C-294.80544776 455.22408019 -301.44330348 453.43427736 -308 452 C-308 451.34 -308 450.68 -308 450 C-309.155 449.95875 -310.31 449.9175 -311.5 449.875 C-319.03087972 449.08927419 -326.03028244 445.79643882 -333 443 C-333 442.34 -333 441.68 -333 441 C-333.721875 440.87625 -334.44375 440.7525 -335.1875 440.625 C-337.95721894 440.0095069 -340.3970354 439.11555626 -343 438 C-343 437.34 -343 436.68 -343 436 C-343.7425 435.87625 -344.485 435.7525 -345.25 435.625 C-347.80141485 435.04513299 -349.7267573 434.26291261 -352 433 C-352 432.34 -352 431.68 -352 431 C-352.68578125 430.93167969 -353.3715625 430.86335938 -354.078125 430.79296875 C-357.90032051 429.75566168 -360.63660094 427.65934087 -363.75 425.3125 C-364.99257802 424.39719871 -366.23606775 423.48313381 -367.48046875 422.5703125 C-368.08165527 422.12719727 -368.6828418 421.68408203 -369.30224609 421.22753906 C-371.50566898 419.63438257 -373.77476039 418.15626728 -376.0625 416.6875 C-379.46762142 414.45092578 -382.18757812 411.96444468 -385 409 C-386.09530831 408.09335724 -387.19968928 407.19757271 -388.3125 406.3125 C-389.199375 405.549375 -390.08625 404.78625 -391 404 C-391 403.34 -391 402.68 -391 402 C-391.86625 401.6596875 -391.86625 401.6596875 -392.75 401.3125 C-395.60890224 399.64480702 -396.97236359 397.62055537 -399 395 C-399.78117187 394.03964844 -400.56234375 393.07929688 -401.3671875 392.08984375 C-415 375.07708405 -415 375.07708405 -415 367 C-415.66 367 -416.32 367 -417 367 C-417.50744423 365.10614563 -418.00564574 363.20981334 -418.5 361.3125 C-418.7784375 360.25675781 -419.056875 359.20101563 -419.34375 358.11328125 C-419.9391715 355.28857328 -420.12786492 352.87163292 -420 350 C-420.66 350 -421.32 350 -422 350 C-423.71889835 338.61229844 -423.32159344 328.07197812 -420 317 C-419.45398363 315.02202892 -418.91254363 313.04279046 -418.375 311.0625 C-417.98441406 309.62583984 -417.98441406 309.62583984 -417.5859375 308.16015625 C-417.39257812 307.44730469 -417.19921875 306.73445313 -417 306 C-416.34 306 -415.68 306 -415 306 C-414.86722656 305.37351562 -414.73445312 304.74703125 -414.59765625 304.1015625 C-414.42105469 303.28429687 -414.24445313 302.46703125 -414.0625 301.625 C-413.88847656 300.81289063 -413.71445312 300.00078125 -413.53515625 299.1640625 C-413 297 -413 297 -412 295 C-411.34 295 -410.68 295 -410 295 C-409.87625 294.278125 -409.7525 293.55625 -409.625 292.8125 C-409.0095069 290.04278106 -408.11555626 287.6029646 -407 285 C-406.34 285 -405.68 285 -405 285 C-404.89816406 284.45859375 -404.79632813 283.9171875 -404.69140625 283.359375 C-403.82242393 280.39403419 -402.44527709 277.94475054 -400.9375 275.25 C-400.38964844 274.26515625 -399.84179688 273.2803125 -399.27734375 272.265625 C-398.85582031 271.51796875 -398.43429687 270.7703125 -398 270 C-397.34 270 -396.68 270 -396 270 C-395.731875 268.865625 -395.46375 267.73125 -395.1875 266.5625 C-394.795625 265.386875 -394.40375 264.21125 -394 263 C-393.01 262.67 -392.02 262.34 -391 262 C-390.31974363 260.00458132 -389.65509503 258.00382009 -389 256 C-387.70647667 254.30225062 -386.37482707 252.63260714 -385 251 C-384.29114106 249.68861096 -383.60543548 248.36222983 -383 247 C-382.34 247 -381.68 247 -381 247 C-380.855625 246.38125 -380.71125 245.7625 -380.5625 245.125 C-380 243 -380 243 -379 241 C-378.34 241 -377.68 241 -377 241 C-376.7525 240.278125 -376.505 239.55625 -376.25 238.8125 C-374.88483061 235.74086887 -373.1247383 233.5895248 -371 231 C-370.29114106 229.68861096 -369.60543548 228.36222983 -369 227 C-368.34 227 -367.68 227 -367 227 C-366.76410156 226.28070313 -366.52820313 225.56140625 -366.28515625 224.8203125 C-364.78957488 221.53821599 -362.92011632 219.4811494 -360.4375 216.875 C-357.02241528 213.3629931 -357.02241528 213.3629931 -355 209 C-353.68733482 207.64631404 -352.35432675 206.31200404 -351 205 C-350.67 204.34 -350.34 203.68 -350 203 C-349.34 203 -348.68 203 -348 203 C-347.731875 202.360625 -347.46375 201.72125 -347.1875 201.0625 C-346 199 -346 199 -343 198 C-342.64587656 196.67203709 -342.31585131 195.33758246 -342 194 C-340.546875 192.03515625 -340.546875 192.03515625 -338.75 190.0625 C-338.11964844 189.36640625 -337.48929687 188.6703125 -336.83984375 187.953125 C-334.60921105 185.58514974 -332.30020056 183.30020056 -330 181 C-329.34 180.175 -328.68 179.35 -328 178.5 C-325.83551517 175.79439396 -323.44909896 173.44909896 -321 171 C-320.09538109 169.90301959 -319.19945919 168.79880769 -318.3125 167.6875 C-317.549375 166.800625 -316.78625 165.91375 -316 165 C-315.34 165 -314.68 165 -314 165 C-313.731875 164.360625 -313.46375 163.72125 -313.1875 163.0625 C-312 161 -312 161 -309 160 C-308.3094214 158.67889311 -307.64467276 157.34410537 -307 156 C-305.51953125 154.578125 -305.51953125 154.578125 -303.8125 153.25 C-300.28493548 150.37050579 -297.45060716 147.16020738 -294.578125 143.63671875 C-293 142 -293 142 -290 141 C-289.31120677 139.67796138 -288.64698887 138.34299204 -288 137 C-286.34375 135.296875 -286.34375 135.296875 -284.5 133.75 C-283.8915625 133.22921875 -283.283125 132.7084375 -282.65625 132.171875 C-281 131 -281 131 -279 131 C-278.67 130.01 -278.34 129.02 -278 128 C-276.07421875 126.31640625 -276.07421875 126.31640625 -273.6875 124.5625 C-271.34898177 122.83470224 -269.16989734 121.17131021 -267.12109375 119.10546875 C-264.39733645 116.40177596 -261.40681776 114.09183485 -258.375 111.75 C-253.2059085 107.73709934 -248.10687115 103.65932912 -243.0859375 99.4609375 C-241 98 -241 98 -238.7890625 97.4765625 C-238.19867188 97.31929688 -237.60828125 97.16203125 -237 97 C-236.67 96.01 -236.34 95.02 -236 94 C-234.36935236 92.94228261 -232.69719127 91.94726954 -231 91 C-230.278125 90.443125 -229.55625 89.88625 -228.8125 89.3125 C-227 88 -227 88 -225 88 C-225 87.34 -225 86.68 -225 86 C-220.61538462 83 -220.61538462 83 -218 83 C-218 82.34 -218 81.68 -218 81 C-217.071875 80.566875 -216.14375 80.13375 -215.1875 79.6875 C-212.39477367 78.20899782 -211.1224938 77.17705662 -209 75 C-207.85364747 74.09855006 -206.68634297 73.22313116 -205.5 72.375 C-204.9121875 71.94960937 -204.324375 71.52421875 -203.71875 71.0859375 C-202 70 -202 70 -199 69 C-198.56816406 68.56042969 -198.13632812 68.12085938 -197.69140625 67.66796875 C-195.36904724 65.37779023 -192.75504608 63.94551273 -189.9375 62.3125 C-188.34228516 61.37857422 -188.34228516 61.37857422 -186.71484375 60.42578125 C-184 59 -184 59 -182 59 C-182 58.34 -182 57.68 -182 57 C-181.48050781 56.74605469 -180.96101562 56.49210937 -180.42578125 56.23046875 C-177.26124911 54.66867562 -174.18680402 53.11623362 -171.1875 51.25 C-169 50 -169 50 -166 50 C-165.67 49.01 -165.34 48.02 -165 47 C-161.4375 45.8125 -161.4375 45.8125 -158 45 C-158 44.34 -158 43.68 -158 43 C-155.03 42.01 -152.06 41.02 -149 40 C-149 39.34 -149 38.68 -149 38 C-146.81855776 36.84120336 -144.63096983 35.69812622 -142.4375 34.5625 C-141.52387695 34.07426758 -141.52387695 34.07426758 -140.59179688 33.57617188 C-136.34439386 31.39628779 -132.75837333 30.43480631 -128 30 C-128 29.34 -128 28.68 -128 28 C-125.81945416 27.02592397 -123.63763286 26.05501153 -121.453125 25.08984375 C-119.95878974 24.42595914 -118.46811576 23.75364276 -116.984375 23.06640625 C-113.65849598 21.55530035 -111.74133022 21 -108 21 C-108 20.34 -108 19.68 -108 19 C-107.14277344 18.74605469 -106.28554688 18.49210937 -105.40234375 18.23046875 C-98.16569343 16.12266789 -98.16569343 16.12266789 -91.1875 13.3125 C-87.36031852 11.73660175 -84.11062324 11.36058099 -80 11 C-80 10.34 -80 9.68 -80 9 C-78.27318563 8.49193553 -76.54342021 7.99389533 -74.8125 7.5 C-73.84957031 7.2215625 -72.88664062 6.943125 -71.89453125 6.65625 C-69.14654124 6.03322392 -66.80401584 5.87697188 -64 6 C-64 5.34 -64 4.68 -64 4 C-63.07058594 3.80664062 -62.14117187 3.61328125 -61.18359375 3.4140625 C-59.32927734 3.02347656 -59.32927734 3.02347656 -57.4375 2.625 C-56.21933594 2.36976562 -55.00117188 2.11453125 -53.74609375 1.8515625 C-51.31752091 1.29949902 -48.90375651 0.67555126 -46.515625 -0.03125 C-33.35014842 -3.65907021 -12.6053205 -6.30266025 0 0 Z M-60 58 C-61.31032236 58.3303748 -62.62292145 58.65183351 -63.9375 58.96484375 C-64.93910156 59.20557617 -64.93910156 59.20557617 -65.9609375 59.45117188 C-67.31943601 59.77518158 -68.67881997 60.0955012 -70.0390625 60.41210938 C-74.60161335 61.51751503 -78.691153 63.10086256 -83 65 C-86.5087238 66.28670243 -90.05299167 67.47265603 -93.59570312 68.66210938 C-98.00883278 70.1812521 -102.12699011 71.95940272 -106.25805664 74.13500977 C-108 75 -108 75 -111 76 C-111 76.66 -111 77.32 -111 78 C-111.6290625 78.17015625 -112.258125 78.3403125 -112.90625 78.515625 C-118.00247352 79.95853166 -122.64225193 81.61941753 -127.30859375 84.1328125 C-129 85 -129 85 -132 86 C-132 86.66 -132 87.32 -132 88 C-132.67417969 88.09152344 -133.34835937 88.18304688 -134.04296875 88.27734375 C-137.75097572 89.18352775 -140.94828493 90.81283099 -144.3125 92.5625 C-144.95767578 92.89185547 -145.60285156 93.22121094 -146.26757812 93.56054688 C-147.84785228 94.36824255 -149.42432105 95.18337613 -151 96 C-151 96.66 -151 97.32 -151 98 C-151.598125 98.144375 -152.19625 98.28875 -152.8125 98.4375 C-154.56150404 98.8872439 -156.28677023 99.42892341 -158 100 C-158 100.66 -158 101.32 -158 102 C-160.97 102.99 -163.94 103.98 -167 105 C-167 105.66 -167 106.32 -167 107 C-167.94875 107.309375 -168.8975 107.61875 -169.875 107.9375 C-172.86080408 108.87394742 -172.86080408 108.87394742 -175 110 C-175 110.66 -175 111.32 -175 112 C-175.94875 112.309375 -176.8975 112.61875 -177.875 112.9375 C-180.86080408 113.87394742 -180.86080408 113.87394742 -183 115 C-183 115.66 -183 116.32 -183 117 C-183.88429688 117.2475 -184.76859375 117.495 -185.6796875 117.75 C-189.17230746 119.06486869 -191.29999462 120.59121798 -194.125 123 C-196.98703464 125.42515085 -199.55959283 127.47797655 -203 129 C-203 129.66 -203 130.32 -203 131 C-203.5775 131.12375 -204.155 131.2475 -204.75 131.375 C-207.05099641 132.01416567 -208.94109615 132.79305636 -211 134 C-211.33 134.66 -211.66 135.32 -212 136 C-213.66666667 137 -215.33333333 138 -217 139 C-217.33 139.66 -217.66 140.32 -218 141 C-219.65670487 142.01641859 -221.32519117 143.01369722 -223 144 C-224.66768984 145.26332131 -226.31334619 146.55617684 -227.9375 147.875 C-228.80890625 148.58140625 -229.6803125 149.2878125 -230.578125 150.015625 C-233.40011998 152.32784024 -236.21253928 154.64614428 -239 157 C-239.57492187 157.48210937 -240.14984375 157.96421875 -240.7421875 158.4609375 C-243.47460417 160.7711782 -246.09244666 163.09244666 -248.625 165.625 C-250.96069056 167.96069056 -253.42318468 169.93854774 -256 172 C-256.75539063 172.75667969 -257.51078125 173.51335937 -258.2890625 174.29296875 C-260.58497985 176.58557786 -262.93687686 178.7786186 -265.35131836 180.94482422 C-270.05229601 185.16448081 -274.47154127 189.42551994 -278.53125 194.28125 C-279.9258794 195.91326313 -281.386484 197.39291805 -282.9375 198.875 C-285.23215846 200.74563699 -285.23215846 200.74563699 -285 203 C-285.9590625 203.4021875 -285.9590625 203.4021875 -286.9375 203.8125 C-289.33131686 204.88667752 -289.33131686 204.88667752 -290 208 C-290.99 208.33 -291.98 208.66 -293 209 C-293.68001037 210.3265776 -294.34508888 211.66085339 -295 213 C-296.734375 214.640625 -296.734375 214.640625 -298.75 216.25 C-302.34574362 219.27146878 -305.02590461 222.43606144 -307.67578125 226.30078125 C-309 228 -309 228 -312 230 C-312.68268138 231.32520503 -313.3507041 232.65812182 -314 234 C-314.66 234.33 -315.32 234.66 -316 235 C-316.474375 235.94875 -316.94875 236.8975 -317.4375 237.875 C-318.84845668 240.69691336 -319.8182359 241.88706233 -322 244 C-323.97413726 246.44134856 -325.8231913 248.97416241 -327.6875 251.5 C-328.19861328 252.17675781 -328.70972656 252.85351562 -329.23632812 253.55078125 C-329.71908203 254.20433594 -330.20183594 254.85789062 -330.69921875 255.53125 C-331.14096436 256.12486328 -331.58270996 256.71847656 -332.0378418 257.33007812 C-333.24961627 259.11202158 -333.24961627 259.11202158 -333 262 C-333.99 262.33 -334.98 262.66 -336 263 C-337.53888984 265.20102057 -337.53888984 265.20102057 -339 268 C-339.35578125 268.59941406 -339.7115625 269.19882812 -340.078125 269.81640625 C-342.2559189 273.17630903 -342.2559189 273.17630903 -343 277 C-343.66 277 -344.32 277 -345 277 C-347.85968103 283.2989104 -347.85968103 283.2989104 -347 290 C-343.55715371 290.8129155 -340.68668287 291.05607609 -337.171875 290.6953125 C-336.29015625 290.60636719 -335.4084375 290.51742187 -334.5 290.42578125 C-333.5925 290.32652344 -332.685 290.22726562 -331.75 290.125 C-330.82703125 290.03347656 -329.9040625 289.94195312 -328.953125 289.84765625 C-324.63485697 289.75561103 -324.63485697 289.75561103 -321 288 C-318.42566898 287.63853051 -315.86556581 287.33276783 -313.28125 287.0625 C-312.12163757 286.93500366 -312.12163757 286.93500366 -310.93859863 286.80493164 C-307.61779868 286.43995701 -304.29592019 286.0852387 -300.97412109 285.72949219 C-298.55526867 285.4689931 -296.13701564 285.20338195 -293.71875 284.9375 C-292.96146606 284.85830322 -292.20418213 284.77910645 -291.4239502 284.69750977 C-287.91296211 284.58949432 -287.91296211 284.58949432 -285 283 C-281.328504 282.3376167 -277.65219902 281.75811638 -273.96484375 281.19335938 C-269.17916576 280.43503766 -264.65625508 279.37106818 -260 278 C-256.24769814 277.21170129 -252.48543173 276.49723083 -248.71875 275.78125 C-245.0809171 275.01699939 -241.56825843 274.03686057 -238 273 C-234.73387887 272.23059573 -231.46009152 271.5049902 -228.18359375 270.78125 C-225.04876834 270.01196769 -222.05473562 269.03836863 -219 268 C-217.04573729 267.44382602 -215.08746151 266.90151406 -213.125 266.375 C-212.15820312 266.11460937 -211.19140625 265.85421875 -210.1953125 265.5859375 C-209.47085938 265.39257812 -208.74640625 265.19921875 -208 265 C-208 264.34 -208 263.68 -208 263 C-207.43152344 262.95101562 -206.86304688 262.90203125 -206.27734375 262.8515625 C-201.28918871 262.36856919 -196.77400422 261.52361837 -192 260 C-192 259.34 -192 258.68 -192 258 C-190.9275 257.938125 -189.855 257.87625 -188.75 257.8125 C-183.66629383 257.2031828 -179.29088093 255.20622668 -174.63671875 253.15625 C-172 252 -172 252 -169 251 C-169 250.34 -169 249.68 -169 249 C-168.37351562 248.86722656 -167.74703125 248.73445312 -167.1015625 248.59765625 C-165.87566406 248.33275391 -165.87566406 248.33275391 -164.625 248.0625 C-163.81289063 247.88847656 -163.00078125 247.71445312 -162.1640625 247.53515625 C-159.970537 247.07669307 -159.970537 247.07669307 -158 246 C-158 245.34 -158 244.68 -158 244 C-157.13117188 243.89558594 -156.26234375 243.79117188 -155.3671875 243.68359375 C-143.95282012 241.36629179 -132.72600532 232.26715619 -123 226 C-121.37384766 224.95392578 -121.37384766 224.95392578 -119.71484375 223.88671875 C-117.5029099 222.34950429 -115.82675535 220.93996272 -114 219 C-111.89387523 217.19187376 -109.77223447 215.40376402 -107.64453125 213.62109375 C-107.10183594 213.08613281 -106.55914062 212.55117188 -106 212 C-106 211.34 -106 210.68 -106 210 C-105.0409375 209.5978125 -105.0409375 209.5978125 -104.0625 209.1875 C-101.66868314 208.11332248 -101.66868314 208.11332248 -101 205 C-99.67840634 204.31035341 -98.34356353 203.64580126 -97 203 C-95.43544512 201.46447533 -95.43544512 201.46447533 -94.0625 199.6875 C-92.17819765 197.38606201 -90.27951281 195.23825441 -88.125 193.1875 C-85.76773811 191.26919324 -85.76773811 191.26919324 -86 189 C-85.01 188.67 -84.02 188.34 -83 188 C-80.38124858 184.50833145 -78.45177445 181.11336093 -77 177 C-76.34 177 -75.68 177 -75 177 C-72.68407978 173.77885843 -72.68407978 173.77885843 -72 170 C-71.34 170 -70.68 170 -70 170 C-69.04078278 168.25048432 -68.08266183 166.50036756 -67.125 164.75 C-66.59132813 163.77546875 -66.05765625 162.8009375 -65.5078125 161.796875 C-65.01023437 160.87390625 -64.51265625 159.9509375 -64 159 C-63.60554688 158.28328125 -63.21109375 157.5665625 -62.8046875 156.828125 C-61.79856516 154.8752695 -61.79856516 154.8752695 -62 152 C-61.34 152 -60.68 152 -60 152 C-59.01 148.37 -58.02 144.74 -57 141 C-56.34 141 -55.68 141 -55 141 C-54.34 137.7 -53.68 134.4 -53 131 C-52.34 131 -51.68 131 -51 131 C-50.49307308 129.4188708 -49.99473557 127.83498617 -49.5 126.25 C-49.2215625 125.36828125 -48.943125 124.4865625 -48.65625 123.578125 C-47.83554715 120.79732471 -47.83554715 120.79732471 -48 117 C-47.34 117 -46.68 117 -46 117 C-45.73445313 115.78183594 -45.46890625 114.56367188 -45.1953125 113.30859375 C-44.83865655 111.6848706 -44.48187926 110.06117409 -44.125 108.4375 C-43.95097656 107.63763672 -43.77695312 106.83777344 -43.59765625 106.01367188 C-42.55573859 101.28645285 -41.34227128 96.65283111 -40 92 C-38.79475246 87.14643556 -38.55179439 82.22592703 -38.25 77.25 C-38.18167969 76.3940625 -38.11335938 75.538125 -38.04296875 74.65625 C-37.69212598 68.71891085 -38.16441037 63.3387707 -41 58 C-44.07320642 55.95119572 -44.76791426 55.72564975 -48.25 55.75 C-48.97703125 55.74484375 -49.7040625 55.7396875 -50.453125 55.734375 C-53.78317869 56.08168121 -56.79288848 57.04260279 -60 58 Z M-201.328125 311.9765625 C-205.85014039 313.70867951 -210.63357357 314.15041428 -215.40625 314.85546875 C-220.0449467 315.57352641 -220.0449467 315.57352641 -224.5 317 C-228.93210626 318.7728425 -233.70400011 319.1608182 -238.40625 319.85546875 C-243.00673915 320.55710975 -243.00673915 320.55710975 -247.41015625 322 C-251.59983139 323.61773279 -255.9992509 323.94176825 -260.4375 324.5 C-266.22151908 325.23052843 -271.472932 326.09092916 -277 328 C-279.47182984 328.38397357 -281.95230114 328.71510515 -284.4375 329 C-288.18793535 329.43081924 -291.66770632 329.90263756 -295.29296875 330.96484375 C-300.10763412 332.3092972 -304.92502397 332.91995503 -309.875 333.5625 C-311.76872933 333.81000484 -313.66199328 334.06110639 -315.5546875 334.31640625 C-316.38468262 334.42412354 -317.21467773 334.53184082 -318.06982422 334.64282227 C-320.0004321 334.81155308 -320.0004321 334.81155308 -321 336 C-323.27436595 336.35918984 -325.55791795 336.66049882 -327.84375 336.9375 C-328.52804077 337.02249756 -329.21233154 337.10749512 -329.9173584 337.19506836 C-332.85575891 337.5599185 -335.79535525 337.91470981 -338.73486328 338.27050781 C-340.87576354 338.53107323 -343.01600015 338.79665393 -345.15625 339.0625 C-346.44337891 339.21847656 -347.73050781 339.37445313 -349.05664062 339.53515625 C-351.88163924 339.6855912 -351.88163924 339.6855912 -353 341 C-354.80518926 341.37088961 -356.61961428 341.69741304 -358.4375 342 C-362.34682538 342.60555519 -362.34682538 342.60555519 -366 344 C-367.42645297 347.74243559 -366.51875448 350.2312966 -365.02734375 353.89453125 C-363.37062224 357.28986545 -361.38472573 360.06495295 -359 363 C-358.34 363 -357.68 363 -357 363 C-356.76023437 363.72703125 -356.52046875 364.4540625 -356.2734375 365.203125 C-354.81852288 368.39858166 -353.1139438 370.28586295 -350.625 372.75 C-349.85414063 373.52859375 -349.08328125 374.3071875 -348.2890625 375.109375 C-346.02083722 376.98278974 -344.79907533 377.43403312 -342 378 C-341.30062468 379.31647119 -340.63270867 380.65022151 -340 382 C-338.515 382.495 -338.515 382.495 -337 383 C-336.505 383.99 -336.505 383.99 -336 385 C-332.21654368 387.24411646 -332.21654368 387.24411646 -328 388 C-328 388.66 -328 389.32 -328 390 C-325.54379149 391.17133058 -323.08525083 392.33721722 -320.625 393.5 C-319.92632812 393.83386719 -319.22765625 394.16773438 -318.5078125 394.51171875 C-314.91172001 396.35209398 -314.91172001 396.35209398 -311 397 C-311 397.66 -311 398.32 -311 399 C-309.48019531 399.39832031 -309.48019531 399.39832031 -307.9296875 399.8046875 C-306.57809823 400.16135689 -305.22653722 400.51813343 -303.875 400.875 C-303.20984375 401.04902344 -302.5446875 401.22304688 -301.859375 401.40234375 C-301.20195312 401.57636719 -300.54453125 401.75039063 -299.8671875 401.9296875 C-298.97169189 402.16534424 -298.97169189 402.16534424 -298.05810547 402.40576172 C-296.39803664 402.88507459 -294.75736386 403.43127156 -293.125 403.99780273 C-282.69758154 407.34190842 -271.72242946 407.36243135 -260.875 407.3125 C-259.79764084 407.3122583 -259.79764084 407.3122583 -258.69851685 407.31201172 C-247.25291345 407.29418392 -236.20093003 406.45339797 -225 404 C-225 403.34 -225 402.68 -225 402 C-223.845 401.896875 -222.69 401.79375 -221.5 401.6875 C-210.64792703 400.29767311 -200.94480281 394.15966139 -191.5625 388.875 C-190.95905762 388.53831299 -190.35561523 388.20162598 -189.73388672 387.85473633 C-186.77194871 386.16393203 -184.28553018 384.53261452 -182 382 C-180.88513833 381.00930539 -179.75973796 380.03036473 -178.625 379.0625 C-178.01527344 378.53914063 -177.40554688 378.01578125 -176.77734375 377.4765625 C-175.2913119 376.24201296 -173.74542838 375.07998081 -172.1875 373.9375 C-169.73047015 371.76127356 -169.14164571 370.01720652 -168 367 C-167.01 366.67 -166.02 366.34 -165 366 C-163.78130071 363.49552484 -163.78130071 363.49552484 -163 361 C-162.34 361 -161.68 361 -161 361 C-158.95830515 358.09451118 -158 356.59857954 -158 353 C-157.34 353 -156.68 353 -156 353 C-155.01407845 350.94072044 -154.03652506 348.87743312 -153.0625 346.8125 C-152.51722656 345.66394531 -151.97195313 344.51539063 -151.41015625 343.33203125 C-149.26220788 338.25668511 -148.84430984 333.9278777 -148.8125 328.4375 C-148.79832031 327.32246094 -148.78414062 326.20742188 -148.76953125 325.05859375 C-148.99132811 322.11508623 -149.4662999 320.4793808 -151 318 C-151.66 318 -152.32 318 -153 318 C-153.33 317.01 -153.66 316.02 -154 315 C-157.00847418 313.77479736 -157.00847418 313.77479736 -160 313 C-160 312.34 -160 311.68 -160 311 C-165.51587546 309.44518947 -170.40517347 308.6737178 -176.125 308.75 C-177.21989746 308.75797607 -177.21989746 308.75797607 -178.33691406 308.76611328 C-190.09972905 308.96467318 -190.09972905 308.96467318 -201.328125 311.9765625 Z " fill="#F8C738" transform="translate(550,100)"/>
<path d="M0 0 C0 0.66 0 1.32 0 2 C0.59296875 2.2578125 1.1859375 2.515625 1.796875 2.78125 C4.17660965 4.09769895 5.50978792 5.42580782 7.25 7.5 C7.77078125 8.1084375 8.2915625 8.716875 8.828125 9.34375 C10 11 10 11 10 13 C10.66 13 11.32 13 12 13 C14.87446024 23.85070547 15.47974139 33.91120235 15.375 45.0625 C15.37234131 45.88051086 15.36968262 46.69852173 15.36694336 47.5413208 C15.30770715 63.16866781 14.07189994 78.508507 12 94 C11.34 94 10.68 94 10 94 C9.95101563 94.81082031 9.90203125 95.62164062 9.8515625 96.45703125 C8.67252049 113.91905001 8.67252049 113.91905001 6.0234375 120.3828125 C4.37722392 124.59259531 3.73033633 129.00225111 2.87890625 133.4296875 C1.95080878 137.19982568 0.56092747 140.44793821 -1 144 C-2.12332202 147.12606225 -3.15698498 150.27979841 -4.1875 153.4375 C-4.46013672 154.26443359 -4.73277344 155.09136719 -5.01367188 155.94335938 C-5.67855197 157.96132879 -6.33966791 159.98053778 -7 162 C-7.66 162 -8.32 162 -9 162 C-9.12375 162.721875 -9.2475 163.44375 -9.375 164.1875 C-9.9904931 166.95721894 -10.88444374 169.3970354 -12 172 C-12.66 172 -13.32 172 -14 172 C-14.12375 172.721875 -14.2475 173.44375 -14.375 174.1875 C-14.9904931 176.95721894 -15.88444374 179.3970354 -17 182 C-17.66 182 -18.32 182 -19 182 C-19.12375 182.556875 -19.2475 183.11375 -19.375 183.6875 C-20.05976855 186.22114364 -20.99133763 188.57921032 -22 191 C-22.66 191 -23.32 191 -24 191 C-24.3403125 191.99 -24.3403125 191.99 -24.6875 193 C-26.3878815 196.88658628 -28.39623084 200.63679817 -31 204 C-31.66 204 -32.32 204 -33 204 C-33.268125 204.969375 -33.53625 205.93875 -33.8125 206.9375 C-34.204375 207.948125 -34.59625 208.95875 -35 210 C-35.99 210.33 -36.98 210.66 -38 211 C-38.309375 211.928125 -38.61875 212.85625 -38.9375 213.8125 C-40.11773482 217.35320447 -41.28635472 218.51895288 -44 221 C-45.2225424 222.44774758 -46.4441054 223.89644399 -47.6484375 225.359375 C-51.55693207 230.10379037 -55.46260484 234.8407211 -60 239 C-60.66 239 -61.32 239 -62 239 C-62.268125 239.639375 -62.53625 240.27875 -62.8125 240.9375 C-64 243 -64 243 -67 244 C-67.6711 245.33110744 -68.33726355 246.66470879 -69 248 C-70.8046875 249.5625 -70.8046875 249.5625 -72.875 251 C-75.86792855 253.14628029 -78.43573212 255.34730909 -81 258 C-92.66666667 268 -92.66666667 268 -97 268 C-97 268.66 -97 269.32 -97 270 C-99.90548882 272.04169485 -101.40142046 273 -105 273 C-105 273.66 -105 274.32 -105 275 C-111.625 278 -111.625 278 -115 278 C-115 278.66 -115 279.32 -115 280 C-115.66 280 -116.32 280 -117 280 C-115.53115269 283.87241564 -113.50293196 284.97198676 -110 287 C-110 287.66 -110 288.32 -110 289 C-109.34 289 -108.68 289 -108 289 C-105 293.38461538 -105 293.38461538 -105 296 C-104.34 296 -103.68 296 -103 296 C-102 299 -101 302 -100 305 C-99.65066406 305.91265625 -99.30132812 306.8253125 -98.94140625 307.765625 C-97.78138247 311.75110089 -97.50014316 315.49422609 -97.3125 319.625 C-97.27342529 320.41680664 -97.23435059 321.20861328 -97.1940918 322.02441406 C-96.83609507 330.60588315 -96.89486408 338.89214509 -100 347 C-100.44442791 348.72739904 -100.88104742 350.45681451 -101.3125 352.1875 C-102.89164575 358.11336652 -105.31014225 363.50333417 -108 369 C-108.66 369 -109.32 369 -110 369 C-110.103125 369.70769531 -110.20625 370.41539062 -110.3125 371.14453125 C-111.09062679 374.37641013 -112.36148842 376.80041109 -114 379.6875 C-114.53625 380.64011719 -115.0725 381.59273438 -115.625 382.57421875 C-116.07875 383.37472656 -116.5325 384.17523438 -117 385 C-117.33 385.66 -117.66 386.32 -118 387 C-118.66 387 -119.32 387 -120 387 C-120.103125 387.639375 -120.20625 388.27875 -120.3125 388.9375 C-120.539375 389.618125 -120.76625 390.29875 -121 391 C-121.99 391.33 -122.98 391.66 -124 392 C-124.67854706 393.66186525 -125.34319216 395.32942355 -126 397 C-127.953125 399.4296875 -127.953125 399.4296875 -130.25 401.875 C-133.00511823 404.83763514 -135.69371519 407.80205692 -138.25 410.9375 C-140.53973476 413.63429872 -142.75911551 415.46958232 -146 417 C-146.66 417 -147.32 417 -148 417 C-148.33 417.99 -148.66 418.98 -149 420 C-150.33333333 420.33333333 -151.66666667 420.66666667 -153 421 C-153.33 421.99 -153.66 422.98 -154 424 C-155.95890881 425.39300182 -157.9639118 426.72245446 -160 428 C-160.721875 428.5775 -161.44375 429.155 -162.1875 429.75 C-164 431 -164 431 -167 431 C-167 431.66 -167 432.32 -167 433 C-172.75 436 -172.75 436 -175 436 C-175 436.66 -175 437.32 -175 438 C-177.97 438.99 -180.94 439.98 -184 441 C-184 441.66 -184 442.32 -184 443 C-190.59495317 445.79876116 -197.23933239 448.06496197 -204.1171875 450.0703125 C-206.89208166 450.86290854 -206.89208166 450.86290854 -208.83984375 452.01953125 C-212.29278277 453.58677844 -215.96014194 453.97495148 -219.6875 454.5625 C-224.75088559 454.95342875 -224.75088559 454.95342875 -229 457 C-234.47660468 458.01959261 -239.81199539 458.14627936 -245.37109375 458.1328125 C-246.25225357 458.13376923 -247.13341339 458.13472595 -248.04127502 458.13571167 C-249.89608838 458.13638906 -251.75090416 458.13456567 -253.60571289 458.13037109 C-256.42534786 458.12502305 -259.2448231 458.13032782 -262.06445312 458.13671875 C-263.87500035 458.13605777 -265.68554747 458.13477618 -267.49609375 458.1328125 C-268.32966904 458.13483673 -269.16324432 458.13686096 -270.02207947 458.13894653 C-275.10050739 458.11887762 -279.97245607 457.72578836 -285 457 C-285 456.34 -285 455.68 -285 455 C-286.5159375 455.0928125 -286.5159375 455.0928125 -288.0625 455.1875 C-294.80544776 455.22408019 -301.44330348 453.43427736 -308 452 C-308 451.34 -308 450.68 -308 450 C-309.155 449.95875 -310.31 449.9175 -311.5 449.875 C-319.03087972 449.08927419 -326.03028244 445.79643882 -333 443 C-333 442.34 -333 441.68 -333 441 C-333.721875 440.87625 -334.44375 440.7525 -335.1875 440.625 C-337.95721894 440.0095069 -340.3970354 439.11555626 -343 438 C-343 437.34 -343 436.68 -343 436 C-343.7425 435.87625 -344.485 435.7525 -345.25 435.625 C-347.80141485 435.04513299 -349.7267573 434.26291261 -352 433 C-352 432.34 -352 431.68 -352 431 C-352.68578125 430.93167969 -353.3715625 430.86335938 -354.078125 430.79296875 C-357.90032051 429.75566168 -360.63660094 427.65934087 -363.75 425.3125 C-364.99257802 424.39719871 -366.23606775 423.48313381 -367.48046875 422.5703125 C-368.08165527 422.12719727 -368.6828418 421.68408203 -369.30224609 421.22753906 C-371.50566898 419.63438257 -373.77476039 418.15626728 -376.0625 416.6875 C-379.46762142 414.45092578 -382.18757812 411.96444468 -385 409 C-386.09530831 408.09335724 -387.19968928 407.19757271 -388.3125 406.3125 C-389.6428125 405.1678125 -389.6428125 405.1678125 -391 404 C-391 403.34 -391 402.68 -391 402 C-391.86625 401.6596875 -391.86625 401.6596875 -392.75 401.3125 C-395.60890224 399.64480702 -396.97236359 397.62055537 -399 395 C-399.78117188 394.03964844 -400.56234375 393.07929688 -401.3671875 392.08984375 C-406.82458068 385.28075757 -412.07753307 378.33101431 -415 370 C-414.67 369.01 -414.34 368.02 -414 367 C-413.29037109 368.30710937 -413.29037109 368.30710937 -412.56640625 369.640625 C-406.35712391 380.89683747 -399.4574584 391.16822587 -390 400 C-388.8553125 401.175625 -388.8553125 401.175625 -387.6875 402.375 C-372.26499119 417.43884582 -354.3341527 430.46462498 -334 438 C-334 438.66 -334 439.32 -334 440 C-332.2365625 440.3403125 -332.2365625 440.3403125 -330.4375 440.6875 C-321.96302101 442.564758 -313.61218154 445.52058231 -305.5625 448.75 C-301.61318604 450.1357242 -298.1469939 450.56347433 -294 451 C-293.67 451.33 -293.34 451.66 -293 452 C-285.70695584 453.80206063 -278.50690021 454.31821577 -271.0234375 454.3359375 C-270.01391022 454.3425943 -269.00438293 454.3492511 -267.96426392 454.35610962 C-265.84159139 454.36616386 -263.71888772 454.3709289 -261.59619141 454.37060547 C-258.4034214 454.37496123 -255.21205617 454.41131213 -252.01953125 454.44921875 C-237.39359429 454.52908599 -224.84323509 452.71673762 -211 448 C-209.76507813 447.59523438 -208.53015625 447.19046875 -207.2578125 446.7734375 C-197.01696614 443.34370254 -187.50124476 439.12166971 -178 434 C-177.38495605 433.67241699 -176.76991211 433.34483398 -176.13623047 433.00732422 C-163.47829786 426.22012925 -152.41061847 417.8729809 -142 408 C-141.10410156 407.15695312 -140.20820313 406.31390625 -139.28515625 405.4453125 C-117.93592798 384.78476901 -101.35362227 356.04580286 -100.62670898 325.75878906 C-100.61698438 312.5500037 -102.56544369 300.61986931 -111.375 290.1875 C-112.24125 289.465625 -113.1075 288.74375 -114 288 C-115.44210156 286.77623531 -116.87931813 285.5466988 -118.3125 284.3125 C-119.35857422 283.44044922 -119.35857422 283.44044922 -120.42578125 282.55078125 C-120.94527344 282.03902344 -121.46476562 281.52726562 -122 281 C-122 280.34 -122 279.68 -122 279 C-121.42781738 278.70456299 -120.85563477 278.40912598 -120.26611328 278.10473633 C-102.57596052 268.89942925 -86.54233053 258.72227429 -72 245 C-70.71169526 243.9126708 -69.42008845 242.82924038 -68.125 241.75 C-57.82055202 232.73101636 -49.19449877 221.91586292 -41 211 C-40.57477051 210.43700195 -40.14954102 209.87400391 -39.71142578 209.29394531 C-33.59357551 201.14151585 -28.28702143 192.65644021 -23.2265625 183.8125 C-21.84048164 181.39398238 -20.40727925 179.12431673 -18.83984375 176.80859375 C-17.1587647 174.24236055 -16.00856563 171.92331165 -14.9375 169.0625 C-14.60621094 168.19753906 -14.27492188 167.33257812 -13.93359375 166.44140625 C-13.62550781 165.63574219 -13.31742188 164.83007812 -13 164 C-12 161.66666667 -11 159.33333333 -10 157 C-9.32714547 155.37755239 -8.6609481 153.75233434 -8 152.125 C-7.5359375 150.98417969 -7.5359375 150.98417969 -7.0625 149.8203125 C7.34151125 111.58613558 23.09237453 52.83381867 7.5390625 13.28515625 C4.82591335 7.49389119 0.41292308 4.22472014 -5 1 C-10.30314474 -0.73749353 -16.0496074 -0.18442875 -21.5625 -0.1875 C-22.69236328 -0.19974609 -23.82222656 -0.21199219 -24.98632812 -0.22460938 C-31.43478138 -0.2357466 -37.38269616 0.22470056 -43.67553711 1.66674805 C-46.11696183 2.0167685 -47.67665669 1.76551398 -50 1 C-35.93382329 -3.33085389 -13.71270145 -6.85635072 0 0 Z " fill="#FAF3E1" transform="translate(550,100)"/>
<path d="M0 0 C3.80357924 3.57305928 4.95440797 7.68672079 5.390625 12.734375 C5.36484375 14.03890625 5.3390625 15.3434375 5.3125 16.6875 C5.30009277 17.37980713 5.28768555 18.07211426 5.27490234 18.78540039 C4.98042987 31.63362129 4.98042987 31.63362129 4.0625 35.9375 C3.4025 36.2675 2.7425 36.5975 2.0625 36.9375 C2.1032666 36.2576001 2.1440332 35.5777002 2.18603516 34.87719727 C2.36607134 31.75205593 2.52690138 28.62619811 2.6875 25.5 C2.75195312 24.43072266 2.81640625 23.36144531 2.8828125 22.25976562 C3.2008056 15.76078172 3.05912906 10.16569451 1.0625 3.9375 C-1.66198715 3.02933762 -3.37336965 2.77459904 -6.1875 2.75 C-6.91453125 2.73582031 -7.6415625 2.72164062 -8.390625 2.70703125 C-11.73408479 3.00958359 -14.72295804 3.97449376 -17.9375 4.9375 C-19.24778338 5.26802934 -20.56038513 5.58948604 -21.875 5.90234375 C-22.87660156 6.14307617 -22.87660156 6.14307617 -23.8984375 6.38867188 C-25.25693601 6.71268158 -26.61631997 7.0330012 -27.9765625 7.34960938 C-32.53911335 8.45501503 -36.628653 10.03836256 -40.9375 11.9375 C-44.4462238 13.22420243 -47.99049167 14.41015603 -51.53320312 15.59960938 C-55.97231945 17.12769756 -60.07076305 18.92195584 -64.19555664 21.17016602 C-65.9375 21.9375 -65.9375 21.9375 -68.9375 21.9375 C-68.9375 22.5975 -68.9375 23.2575 -68.9375 23.9375 C-69.88109375 24.30101562 -69.88109375 24.30101562 -70.84375 24.671875 C-75.1222599 26.34719514 -79.29840511 28.06190118 -83.375 30.1875 C-86.9375 31.9375 -86.9375 31.9375 -89.9375 31.9375 C-89.9375 32.5975 -89.9375 33.2575 -89.9375 33.9375 C-92.72621177 35.27707921 -95.51893062 36.60808435 -98.3125 37.9375 C-99.1065625 38.3190625 -99.900625 38.700625 -100.71875 39.09375 C-101.47929687 39.4546875 -102.23984375 39.815625 -103.0234375 40.1875 C-103.7251709 40.52265625 -104.4269043 40.8578125 -105.14990234 41.203125 C-106.9375 41.9375 -106.9375 41.9375 -108.9375 41.9375 C-108.9375 42.5975 -108.9375 43.2575 -108.9375 43.9375 C-111.58488916 45.3981285 -112.83198334 45.9375 -115.9375 45.9375 C-115.9375 46.5975 -115.9375 47.2575 -115.9375 47.9375 C-118.9075 48.9275 -121.8775 49.9175 -124.9375 50.9375 C-124.9375 51.5975 -124.9375 52.2575 -124.9375 52.9375 C-130.6875 55.9375 -130.6875 55.9375 -132.9375 55.9375 C-132.9375 56.5975 -132.9375 57.2575 -132.9375 57.9375 C-138.6875 60.9375 -138.6875 60.9375 -140.9375 60.9375 C-140.9375 61.5975 -140.9375 62.2575 -140.9375 62.9375 C-142.9140625 64.26953125 -142.9140625 64.26953125 -145.5625 65.75 C-148.71697211 67.57040258 -151.62701245 69.3568159 -154.375 71.75 C-156.9375 73.9375 -156.9375 73.9375 -159.9375 74.9375 C-160.2675 75.5975 -160.5975 76.2575 -160.9375 76.9375 C-166.36057692 79.9375 -166.36057692 79.9375 -168.9375 79.9375 C-169.2675 80.9275 -169.5975 81.9175 -169.9375 82.9375 C-171.26217746 83.6212045 -172.59613633 84.28714186 -173.9375 84.9375 C-174.5975 85.9275 -175.2575 86.9175 -175.9375 87.9375 C-177.58963998 88.96132189 -179.25852747 89.95830184 -180.9375 90.9375 C-183.57798249 93.0079233 -186.15130129 95.14688488 -188.73046875 97.29296875 C-190.9375 98.9375 -190.9375 98.9375 -192.9375 98.9375 C-193.30875 99.8965625 -193.30875 99.8965625 -193.6875 100.875 C-194.9375 102.9375 -194.9375 102.9375 -197 103.5 C-197.9590625 103.7165625 -197.9590625 103.7165625 -198.9375 103.9375 C-199.4325 105.4225 -199.4325 105.4225 -199.9375 106.9375 C-201.609375 108.62109375 -201.609375 108.62109375 -203.6875 110.375 C-204.41066406 110.98988281 -205.13382812 111.60476563 -205.87890625 112.23828125 C-207.44577291 113.53161521 -209.0313069 114.80237057 -210.625 116.0625 C-213.00490249 117.92468438 -213.00490249 117.92468438 -215.21484375 120.22265625 C-217.51539844 122.51660964 -219.87074938 124.71303353 -222.28857422 126.88183594 C-227.55911558 131.61367089 -232.43465022 136.45475545 -236.9375 141.9375 C-239.97090286 145.63102162 -242.92306677 149.02024041 -246.625 152.0625 C-248.78745618 153.84334626 -249.97360841 154.99768068 -251.4375 157.4375 C-252.89867012 159.87278353 -254.01700715 160.93958098 -256.1875 162.6875 C-259.9150806 165.71863242 -262.62860706 169.21802841 -265.45703125 173.08203125 C-266.9375 174.9375 -266.9375 174.9375 -268.9375 175.9375 C-269.4325 176.783125 -269.9275 177.62875 -270.4375 178.5 C-271.18 179.7065625 -271.18 179.7065625 -271.9375 180.9375 C-272.5975 180.9375 -273.2575 180.9375 -273.9375 180.9375 C-274.06125 181.535625 -274.185 182.13375 -274.3125 182.75 C-274.9375 184.9375 -274.9375 184.9375 -276.9375 187.9375 C-277.5975 187.9375 -278.2575 187.9375 -278.9375 187.9375 C-279.17339844 188.63617188 -279.40929687 189.33484375 -279.65234375 190.0546875 C-281.18206761 193.48610455 -283.18971559 196.10325929 -285.5 199.0625 C-288.78899212 203.19379747 -288.78899212 203.19379747 -290.9375 207.9375 C-291.5975 208.2675 -292.2575 208.5975 -292.9375 208.9375 C-295.88097956 213.42280218 -298.34815126 218.23982777 -300.9375 222.9375 C-301.5975 222.9375 -302.2575 222.9375 -302.9375 222.9375 C-303.78277244 226.92235578 -304.5546896 230.8797098 -304.9375 234.9375 C-304.2775 235.5975 -303.6175 236.2575 -302.9375 236.9375 C-307.8125 236.0625 -307.8125 236.0625 -308.9375 234.9375 C-309.48746991 229.21638446 -308.17877879 225.69543127 -305.125 221 C-304.72192627 220.35667725 -304.31885254 219.71335449 -303.90356445 219.05053711 C-302.6036593 216.9975458 -301.27642378 214.96523427 -299.9375 212.9375 C-299.504375 212.28007812 -299.07125 211.62265625 -298.625 210.9453125 C-289.04502595 196.51832777 -278.70452993 182.67371803 -267.36132812 169.58789062 C-265.83890227 167.82321319 -264.33240853 166.04578705 -262.828125 164.265625 C-253.69897142 153.48549944 -253.69897142 153.48549944 -248.62231445 148.62329102 C-246.89782828 146.89780528 -245.31854334 145.10081616 -243.734375 143.24609375 C-239.99288729 138.94365376 -236.04217835 134.89379062 -232 130.875 C-231.33548828 130.20662109 -230.67097656 129.53824219 -229.98632812 128.84960938 C-226.0715212 124.94239664 -222.04694265 121.2272251 -217.85961914 117.61450195 C-214.8736695 115.0093339 -212.00737086 112.28097216 -209.125 109.5625 C-203.26301937 104.08365536 -197.21860507 98.93344672 -190.9375 93.9375 C-189.80895458 93.01808123 -188.68140462 92.09743964 -187.5546875 91.17578125 C-177.96400735 83.3643617 -168.06453221 76.03782215 -157.9375 68.9375 C-157.32503418 68.50759766 -156.71256836 68.07769531 -156.08154297 67.63476562 C-144.7155939 59.71970606 -132.76915085 52.71707629 -120.84912109 45.67773438 C-118.91735183 44.52314346 -116.99804811 43.34742038 -115.09228516 42.15039062 C-114.21233887 41.60060547 -113.33239258 41.05082031 -112.42578125 40.484375 C-111.65403564 39.99291992 -110.88229004 39.50146484 -110.0871582 38.99511719 C-107.9375 37.9375 -107.9375 37.9375 -103.9375 37.9375 C-103.9375 37.2775 -103.9375 36.6175 -103.9375 35.9375 C-100.02827223 33.93339258 -96.11386137 31.9399168 -92.19433594 29.95605469 C-90.86213672 29.27990686 -89.53138861 28.60089194 -88.20214844 27.91894531 C-86.28956767 26.93835458 -84.37197933 25.9682448 -82.453125 25 C-81.30102539 24.41347656 -80.14892578 23.82695312 -78.96191406 23.22265625 C-75.9375 21.9375 -75.9375 21.9375 -71.9375 21.9375 C-71.9375 21.2775 -71.9375 20.6175 -71.9375 19.9375 C-58.5196823 13.9972593 -45.1150134 8.43716461 -31.1875 3.8125 C-29.48533325 3.24607788 -29.48533325 3.24607788 -27.7487793 2.66821289 C-18.97171566 -0.18501213 -9.06390682 -3.27843438 0 0 Z " fill="#FBF5E6" transform="translate(507.9375,154.0625)"/>
<path d="M0 0 C0.83893799 0.01353516 1.67787598 0.02707031 2.54223633 0.04101562 C12.70240362 0.3811711 19.3424614 3.4448661 26.71484375 10.4921875 C30.48071126 14.7277584 30.83128429 18.92195443 30.703125 24.46484375 C30.38580207 27.64417538 29.50911664 30.47265009 28.5 33.5 C27.06293264 28.9193478 27.47538296 24.34162855 27.5625 19.59375 C27.50998196 16.99410686 27.27208392 14.96101749 26.5 12.5 C25.84 12.5 25.18 12.5 24.5 12.5 C23.5 11.5 22.5 10.5 21.5 9.5 C19.40010348 8.32425289 19.40010348 8.32425289 17.5 7.5 C17.5 6.84 17.5 6.18 17.5 5.5 C12.09158081 4.74378926 6.83457018 4.30611304 1.375 4.3125 C0.28010254 4.3137085 0.28010254 4.3137085 -0.83691406 4.31494141 C-8.3962641 4.39864242 -16.79945334 4.52829419 -23.828125 7.4765625 C-28.35014039 9.20867951 -33.13357357 9.65041428 -37.90625 10.35546875 C-42.5449467 11.07352641 -42.5449467 11.07352641 -47 12.5 C-51.43210626 14.2728425 -56.20400011 14.6608182 -60.90625 15.35546875 C-65.50673915 16.05710975 -65.50673915 16.05710975 -69.91015625 17.5 C-74.09983139 19.11773279 -78.4992509 19.44176825 -82.9375 20 C-88.72151908 20.73052843 -93.972932 21.59092916 -99.5 23.5 C-101.97182984 23.88397357 -104.45230114 24.21510515 -106.9375 24.5 C-110.68793535 24.93081924 -114.16770632 25.40263756 -117.79296875 26.46484375 C-122.60763412 27.8092972 -127.42502397 28.41995503 -132.375 29.0625 C-134.26872933 29.31000484 -136.16199328 29.56110639 -138.0546875 29.81640625 C-138.88468262 29.92412354 -139.71467773 30.03184082 -140.56982422 30.14282227 C-142.5004321 30.31155308 -142.5004321 30.31155308 -143.5 31.5 C-145.77436595 31.85918984 -148.05791795 32.16049882 -150.34375 32.4375 C-151.02804077 32.52249756 -151.71233154 32.60749512 -152.4173584 32.69506836 C-155.35575891 33.0599185 -158.29535525 33.41470981 -161.23486328 33.77050781 C-163.37576354 34.03107323 -165.51600015 34.29665393 -167.65625 34.5625 C-168.94337891 34.71847656 -170.23050781 34.87445313 -171.55664062 35.03515625 C-174.38163924 35.1855912 -174.38163924 35.1855912 -175.5 36.5 C-177.68019479 36.89666227 -179.8696463 37.24315237 -182.0625 37.5625 C-183.26003906 37.73910156 -184.45757812 37.91570312 -185.69140625 38.09765625 C-187.08166016 38.29681641 -187.08166016 38.29681641 -188.5 38.5 C-188.18787422 46.92739602 -184.58073411 53.67001782 -178.5 59.5 C-177.3679469 60.80642146 -176.24331784 62.11930182 -175.125 63.4375 C-172.45975971 66.50673461 -169.74934189 69.04103857 -166.5 71.5 C-165.4790625 72.551875 -165.4790625 72.551875 -164.4375 73.625 C-162.5394568 75.461816 -160.91114256 76.46665319 -158.5 77.5 C-158.5 78.16 -158.5 78.82 -158.5 79.5 C-157.63375 79.685625 -157.63375 79.685625 -156.75 79.875 C-154.47664233 80.50648824 -152.5746471 81.38858191 -150.5 82.5 C-150.5 83.16 -150.5 83.82 -150.5 84.5 C-149.943125 84.67015625 -149.38625 84.8403125 -148.8125 85.015625 C-143.40409391 86.73315937 -138.51937104 88.85342255 -133.5 91.5 C-133.5 92.16 -133.5 92.82 -133.5 93.5 C-138.35963179 92.89254603 -142.2405518 90.77241033 -146.5 88.5 C-146.5 87.84 -146.5 87.18 -146.5 86.5 C-147.22058594 86.39429688 -147.94117188 86.28859375 -148.68359375 86.1796875 C-158.91864449 83.70964752 -167.14255271 74.60547991 -174.5 67.5 C-175.31726563 66.74589844 -176.13453125 65.99179687 -176.9765625 65.21484375 C-183.53180275 59.00876578 -191.04187468 51.17263296 -192.75 42 C-192.5 38.5 -192.5 38.5 -190.85864258 36.36962891 C-188.02451585 34.12309724 -186.06590086 33.67726235 -182.51171875 33.0859375 C-181.33810791 32.88347412 -180.16449707 32.68101074 -178.95532227 32.47241211 C-177.71194092 32.27526611 -176.46855957 32.07812012 -175.1875 31.875 C-173.91382568 31.66045166 -172.64015137 31.44590332 -171.32788086 31.22485352 C-164.03588852 30.01270601 -156.74241844 28.94520464 -149.40478516 28.05395508 C-144.91166708 27.41653574 -140.48312031 26.56961542 -136.03125 25.6953125 C-128.30393138 24.20057551 -120.56653266 22.79144047 -112.80859375 21.46484375 C-111.83354385 21.29772385 -110.85849396 21.13060394 -109.85389709 20.9584198 C-105.87149644 20.27716818 -101.88869234 19.59839325 -97.9050293 18.92456055 C-83.63321883 16.53887078 -83.63321883 16.53887078 -69.54418945 13.27514648 C-65.60086887 12.2710529 -61.63080081 11.43128344 -57.6484375 10.59765625 C-56.46070488 10.34900063 -56.46070488 10.34900063 -55.24897766 10.09532166 C-52.79133934 9.5826617 -50.33322374 9.07234482 -47.875 8.5625 C-45.44111481 8.05639405 -43.00738716 7.5495549 -40.57391357 7.04147339 C-38.95895403 6.70435125 -37.34376015 6.36834973 -35.72833252 6.03347778 C-31.68996359 5.1911515 -27.66369322 4.3151644 -23.64746094 3.37255859 C-15.73752157 1.52160209 -8.18018226 -0.20025349 0 0 Z " fill="#FAF3DD" transform="translate(372.5,405.5)"/>
<path d="M0 0 C0 0.66 0 1.32 0 2 C0.59296875 2.2578125 1.1859375 2.515625 1.796875 2.78125 C4.17660965 4.09769895 5.50978792 5.42580782 7.25 7.5 C7.77078125 8.1084375 8.2915625 8.716875 8.828125 9.34375 C10 11 10 11 10 13 C10.66 13 11.32 13 12 13 C14.87446024 23.85070547 15.47974139 33.91120235 15.375 45.0625 C15.37101196 46.2895163 15.37101196 46.2895163 15.36694336 47.5413208 C15.30770715 63.16866781 14.07189994 78.508507 12 94 C11.34 94 10.68 94 10 94 C9.95101562 94.81082031 9.90203125 95.62164062 9.8515625 96.45703125 C8.67252049 113.91905001 8.67252049 113.91905001 6.0234375 120.3828125 C4.80069147 123.50968212 4.20057232 126.58009548 3.5625 129.875 C2.50077331 134.9968976 1.25330787 139.30560861 -1 144 C-1.46505011 145.33100549 -1.92305823 146.66448667 -2.375 148 C-3.9220048 152.23564951 -6.25535659 155.43938152 -9 159 C-10 157 -10 157 -9.328125 154.93359375 C-8.97234375 154.10988281 -8.6165625 153.28617188 -8.25 152.4375 C7.8665574 114.85224486 23.00227175 52.60470704 7.5390625 13.28515625 C4.82591335 7.49389119 0.41292308 4.22472014 -5 1 C-10.30314474 -0.73749353 -16.0496074 -0.18442875 -21.5625 -0.1875 C-22.69236328 -0.19974609 -23.82222656 -0.21199219 -24.98632812 -0.22460938 C-31.43478138 -0.2357466 -37.38269616 0.22470056 -43.67553711 1.66674805 C-46.11696183 2.0167685 -47.67665669 1.76551398 -50 1 C-35.93382329 -3.33085389 -13.71270145 -6.85635072 0 0 Z " fill="#FAF0D3" transform="translate(550,100)"/>
<path d="M0 0 C0 0.66 0 1.32 0 2 C-7.34773673 5.12635882 -14.57644015 6.81705678 -22.42358398 8.0480957 C-26.01406677 8.32920031 -26.01406677 8.32920031 -29 10 C-34.47660468 11.01959261 -39.81199539 11.14627936 -45.37109375 11.1328125 C-46.69283348 11.13424759 -46.69283348 11.13424759 -48.04127502 11.13571167 C-49.89608838 11.13638906 -51.75090416 11.13456567 -53.60571289 11.13037109 C-56.42534786 11.12502305 -59.2448231 11.13032782 -62.06445312 11.13671875 C-63.87500035 11.13605777 -65.68554747 11.13477618 -67.49609375 11.1328125 C-68.32966904 11.13483673 -69.16324432 11.13686096 -70.02207947 11.13894653 C-75.10050739 11.11887762 -79.97245607 10.72578836 -85 10 C-85 9.34 -85 8.68 -85 8 C-86.7634375 8.061875 -86.7634375 8.061875 -88.5625 8.125 C-92.72409674 8.13983635 -96.06487667 7.31170778 -100 6 C-100 5.67 -100 5.34 -100 5 C-97.56212615 5.1409349 -95.12482147 5.28754542 -92.6875 5.4375 C-91.99720703 5.47681641 -91.30691406 5.51613281 -90.59570312 5.55664062 C-87.52838465 5.74927415 -84.93031848 6.02322717 -82 7 C-80.5102493 7.10598691 -79.01635078 7.15850451 -77.52294922 7.17700195 C-76.61705048 7.18983719 -75.71115173 7.20267242 -74.77780151 7.21589661 C-73.30611008 7.22697701 -73.30611008 7.22697701 -71.8046875 7.23828125 C-70.78384064 7.246353 -69.76299377 7.25442474 -68.71121216 7.26274109 C-66.54072771 7.27658839 -64.37022143 7.28730764 -62.19970703 7.29516602 C-60.00823461 7.30659167 -57.81678788 7.32689041 -55.62548828 7.35668945 C-39.65355173 7.57377196 -26.14936855 6.05162831 -11 1 C-7.35187604 0.32276508 -3.71300817 0 0 0 Z " fill="#FBF8F0" transform="translate(350,547)"/>
<path d="M0 0 C5.39740423 0.87220411 10.66665724 1.81242841 15.875 3.5 C27.10088787 6.99371762 38.5253277 7.33299645 50.1875 7.25 C50.90735077 7.24822754 51.62720154 7.24645508 52.36886597 7.24462891 C63.34183284 7.21292966 74.14791301 6.70947081 85 5 C69.68001762 15.21332159 39.65366102 11.4565276 22.40625 8.06640625 C14.75127639 6.33467649 7.35285433 3.71449461 0 1 C0 0.67 0 0.34 0 0 Z " fill="#FAEDC7" transform="translate(239,499)"/>
<path d="M0 0 C3.80357924 3.57305928 4.95440797 7.68672079 5.390625 12.734375 C5.35195313 14.69117188 5.35195313 14.69117188 5.3125 16.6875 C5.29388916 17.72596069 5.29388916 17.72596069 5.27490234 18.78540039 C4.98042987 31.63362129 4.98042987 31.63362129 4.0625 35.9375 C3.0725 36.4325 3.0725 36.4325 2.0625 36.9375 C2.1032666 36.2576001 2.1440332 35.5777002 2.18603516 34.87719727 C2.36607134 31.75205593 2.52690138 28.62619811 2.6875 25.5 C2.75195312 24.43072266 2.81640625 23.36144531 2.8828125 22.25976562 C3.2008056 15.76078172 3.05912906 10.16569451 1.0625 3.9375 C-2.86078124 2.62973959 -6.60034463 2.79278703 -10.6875 2.8125 C-11.47382813 2.80863281 -12.26015625 2.80476562 -13.0703125 2.80078125 C-17.79664047 2.80863229 -22.27636903 3.15233623 -26.9375 3.9375 C-19.35742209 -1.11588527 -8.73132965 -3.15814051 0 0 Z " fill="#F8EDCB" transform="translate(507.9375,154.0625)"/>
<path d="M0 0 C0.87333984 -0.020625 1.74667969 -0.04125 2.64648438 -0.0625 C12.34101446 -0.12042102 18.41505291 2.55290714 25.45703125 9.20703125 C29.29616754 13.43412237 29.64466105 17.63403471 29.515625 23.21484375 C29.19830207 26.39417538 28.32161664 29.22265009 27.3125 32.25 C25.87543264 27.6693478 26.28788296 23.09162855 26.375 18.34375 C26.32248196 15.74410686 26.08458392 13.71101749 25.3125 11.25 C24.6525 11.25 23.9925 11.25 23.3125 11.25 C22.3125 10.25 21.3125 9.25 20.3125 8.25 C18.21260348 7.07425289 18.21260348 7.07425289 16.3125 6.25 C16.3125 5.59 16.3125 4.93 16.3125 4.25 C9.77563616 3.26168844 3.41672885 3.13116471 -3.1875 3.1875 C-4.70730469 3.19426758 -4.70730469 3.19426758 -6.2578125 3.20117188 C-8.73443827 3.21285407 -11.21093657 3.22923418 -13.6875 3.25 C-11.41167795 -1.30164411 -4.43240291 0.02560233 0 0 Z " fill="#FBF5E6" transform="translate(373.6875,406.75)"/>
<path d="M0 0 C0.66 0.33 1.32 0.66 2 1 C1.5467334 1.44802979 1.0934668 1.89605957 0.62646484 2.35766602 C-1.46008586 4.4232076 -3.54255497 6.49281952 -5.625 8.5625 C-6.69427734 9.61920898 -6.69427734 9.61920898 -7.78515625 10.69726562 C-11.615 14.50954128 -15.24834259 18.38946869 -18.72167969 22.52807617 C-20.284418 24.32749353 -21.97403129 25.86096694 -23.8125 27.375 C-28.46789975 31.3280377 -32.7286641 35.63967793 -37 40 C-37.66 39.67 -38.32 39.34 -39 39 C-29.11505981 27.98535235 -18.99558833 17.0425996 -7.6875 7.46484375 C-4.98087516 5.11534302 -2.50199475 2.56454462 0 0 Z " fill="#FAF0D7" transform="translate(298,264)"/>
<path d="M0 0 C0.33 0 0.66 0 1 0 C0.98952637 0.7748877 0.97905273 1.54977539 0.96826172 2.34814453 C0.67379139 26.42088428 0.67379139 26.42088428 5 50 C4.34 50 3.68 50 3 50 C2.49255577 48.10614563 1.99435426 46.20981334 1.5 44.3125 C1.08234375 42.72888672 1.08234375 42.72888672 0.65625 41.11328125 C0.0608285 38.28857328 -0.12786492 35.87163292 0 33 C-0.66 33 -1.32 33 -2 33 C-3.71150463 21.66128181 -3.36618304 10.99619792 0 0 Z " fill="#F8E4AF" transform="translate(130,417)"/>
<path d="M0 0 C1.98 0.99 1.98 0.99 4 2 C4 2.66 4 3.32 4 4 C4.66 4 5.32 4 6 4 C9 8.38461538 9 8.38461538 9 11 C9.66 11 10.32 11 11 11 C12 14 13 17 14 20 C14.34933594 20.90492188 14.69867188 21.80984375 15.05859375 22.7421875 C16.24612527 26.85173641 16.4943332 30.74330625 16.6875 35 C16.73455078 35.78117187 16.78160156 36.56234375 16.83007812 37.3671875 C17.05462511 41.74033214 16.91966855 45.68516411 16 50 C15.67 50 15.34 50 15 50 C15 43.4 15 36.8 15 30 C14.34 30 13.68 30 13 30 C12.92523438 29.41734375 12.85046875 28.8346875 12.7734375 28.234375 C11.07907381 17.66951904 5.78646504 8.84988771 0 0 Z " fill="#FBF9EE" transform="translate(436,385)"/>
<path d="M0 0 C2.64895068 2.3623683 4.03878913 4.77899239 5.625 7.9375 C10.36981504 16.82666961 16.3264955 24.89626121 23.78515625 31.6953125 C25 33 25 33 25 35 C21.68950418 34.75477809 20.89953554 33.88508747 18.6640625 31.328125 C17.77245492 30.22163062 16.88449644 29.112187 16 28 C15.18660156 27.00742187 14.37320313 26.01484375 13.53515625 24.9921875 C0 7.92890995 0 7.92890995 0 0 Z " fill="#F9F1DE" transform="translate(135,467)"/>
<path d="M0 0 C-1.80245875 4.02086951 -3.4757384 6.27597574 -7.5 8.1875 C-10 9 -10 9 -13 9 C-13 9.66 -13 10.32 -13 11 C-13.66 11 -14.32 11 -15 11 C-14.34 11.928125 -13.68 12.85625 -13 13.8125 C-11 17 -11 17 -11 20 C-11.48210937 19.50628906 -11.96421875 19.01257813 -12.4609375 18.50390625 C-13.40839844 17.54291016 -13.40839844 17.54291016 -14.375 16.5625 C-15.00148438 15.92441406 -15.62796875 15.28632813 -16.2734375 14.62890625 C-17.91723061 12.92117824 -17.91723061 12.92117824 -20 12 C-20 11.34 -20 10.68 -20 10 C-17.04550087 8.3264663 -14.0857982 6.66236015 -11.125 5 C-10.28324219 4.52304687 -9.44148438 4.04609375 -8.57421875 3.5546875 C-7.76855469 3.10351562 -6.96289062 2.65234375 -6.1328125 2.1875 C-5.38918457 1.76855469 -4.64555664 1.34960938 -3.87939453 0.91796875 C-2 0 -2 0 0 0 Z " fill="#F9F2D6" transform="translate(448,369)"/>
<path d="M0 0 C0 0.99 0 1.98 0 3 C-0.99 3.33 -1.98 3.66 -3 4 C-3.33 4.66 -3.66 5.32 -4 6 C-4.33 6.66 -4.66 7.32 -5 8 C-5.99 8.33 -6.98 8.66 -8 9 C-8.6711 10.33110744 -9.33726355 11.66470879 -10 13 C-11.8046875 14.5625 -11.8046875 14.5625 -13.875 16 C-16.85747247 18.13653483 -19.50110263 20.29286118 -22 23 C-22.66 22.67 -23.32 22.34 -24 22 C-8.275 4.39609375 -8.275 4.39609375 0 0 Z " fill="#FBF8EF" transform="translate(491,335)"/>
<path d="M0 0 C3.0831351 1.19899698 6.06279492 2.47700477 9 4 C9 4.66 9 5.32 9 6 C9.86625 6.185625 9.86625 6.185625 10.75 6.375 C13.02335767 7.00648824 14.9253529 7.88858191 17 9 C17 9.66 17 10.32 17 11 C17.556875 11.17015625 18.11375 11.3403125 18.6875 11.515625 C24.09590609 13.23315937 28.98062896 15.35342255 34 18 C34 18.66 34 19.32 34 20 C29.14036821 19.39254603 25.2594482 17.27241033 21 15 C21 14.34 21 13.68 21 13 C20.2884375 12.90203125 19.576875 12.8040625 18.84375 12.703125 C11.60629741 10.91364496 4.87252837 5.54460125 0 0 Z " fill="#FCEFCC" transform="translate(205,479)"/>
<path d="M0 0 C-0.33 0.66 -0.66 1.32 -1 2 C-3.1171875 2.48657227 -3.1171875 2.48657227 -5.875 2.81640625 C-6.85984375 2.94080078 -7.8446875 3.06519531 -8.859375 3.19335938 C-9.89578125 3.31517578 -10.9321875 3.43699219 -12 3.5625 C-14.04211356 3.81014437 -16.08381048 4.06125756 -18.125 4.31640625 C-19.03507813 4.42412354 -19.94515625 4.53184082 -20.8828125 4.64282227 C-22.97937932 4.7861711 -22.97937932 4.7861711 -24 6 C-25.84891946 6.23363881 -27.70488031 6.41303635 -29.5625 6.5625 C-31.08037109 6.68818359 -31.08037109 6.68818359 -32.62890625 6.81640625 C-33.41136719 6.87699219 -34.19382813 6.93757813 -35 7 C-35 6.34 -35 5.68 -35 5 C-30.5998828 2.7999414 -25.13613849 2.67578539 -20.3125 1.9375 C-19.14009766 1.75123047 -17.96769531 1.56496094 -16.75976562 1.37304688 C-11.11880411 0.50349154 -5.70980055 -0.25915639 0 0 Z " fill="#FCFCFA" transform="translate(221,436)"/>
<path d="M0 0 C0.66 0.33 1.32 0.66 2 1 C0.3603125 1.8971875 0.3603125 1.8971875 -1.3125 2.8125 C-3.44369643 4.01746217 -5.0095013 5.0095013 -6.75 6.75 C-7.1625 7.1625 -7.575 7.575 -8 8 C-8.99 8 -9.98 8 -11 8 C-11 8.66 -11 9.32 -11 10 C-12.41377782 10.36552803 -13.83120576 10.71695495 -15.25 11.0625 C-16.03890625 11.25972656 -16.8278125 11.45695313 -17.640625 11.66015625 C-20.10394822 12.01497267 -21.65604132 11.76877544 -24 11 C-20.27034861 8.96564469 -18.33094958 8 -14 8 C-14 7.34 -14 6.68 -14 6 C-11.71220962 4.96959833 -9.42048864 3.95047982 -7.125 2.9375 C-6.47402344 2.64294922 -5.82304687 2.34839844 -5.15234375 2.04492188 C-3.45989459 1.30338487 -1.73131425 0.64560999 0 0 Z " fill="#F9EECF" transform="translate(450,168)"/>
<path d="M0 0 C0 3 0 3 -1.9765625 5.234375 C-2.85054688 6.06453125 -3.72453125 6.8946875 -4.625 7.75 C-7.66624027 10.68430496 -10.55902122 13.56612481 -13.1875 16.875 C-16.00408892 20.28880261 -19.0591628 22.0295814 -23 24 C-22.45285711 20.16999977 -20.89486792 18.49280294 -18 16 C-17.26910156 15.60296875 -16.53820312 15.2059375 -15.78515625 14.796875 C-12.08964924 12.41267693 -9.2417879 9.45531798 -6.1875 6.3125 C-5.59001953 5.70599609 -4.99253906 5.09949219 -4.37695312 4.47460938 C-2.91335815 2.98759688 -1.45603898 1.49441189 0 0 Z " fill="#FCFAF5" transform="translate(276,288)"/>
<path d="M0 0 C-2.78216867 2.78216867 -5.96854344 3.1415213 -9.6875 4 C-11.08751763 4.33216359 -12.48726017 4.66548889 -13.88671875 5 C-14.56911621 5.16242188 -15.25151367 5.32484375 -15.95458984 5.4921875 C-18.99480078 6.24697847 -21.9945253 7.1176588 -25 8 C-23 5 -23 5 -19.875 4.3125 C-18.92625 4.209375 -17.9775 4.10625 -17 4 C-17 3.34 -17 2.68 -17 2 C-14.91952703 1.4678559 -12.83547707 0.94968214 -10.75 0.4375 C-9.58984375 0.14746094 -8.4296875 -0.14257812 -7.234375 -0.44140625 C-4.27909017 -0.95179964 -2.75565899 -1.02996165 0 0 Z " fill="#FDFEFE" transform="translate(492,157)"/>
<path d="M0 0 C7.75 0.875 7.75 0.875 10 2 C10 2.66 10 3.32 10 4 C10.59425781 4.26683594 11.18851563 4.53367187 11.80078125 4.80859375 C15.43354592 6.77661013 17.86885799 9.47668783 20 13 C20.74153527 16.01398208 20.98594712 18.90134012 21 22 C19 19 19 19 17.6875 15.625 C14.52645412 8.83460515 8.91666462 4.70289766 2.125 1.75 C1.073125 1.37875 1.073125 1.37875 0 1 C0 0.67 0 0.34 0 0 Z " fill="#FAF0D3" transform="translate(540,98)"/>
<path d="M0 0 C0.92361328 -0.020625 1.84722656 -0.04125 2.79882812 -0.0625 C4.12237305 -0.07023437 4.12237305 -0.07023437 5.47265625 -0.078125 C6.280979 -0.0874707 7.08930176 -0.09681641 7.92211914 -0.10644531 C8.58719482 0.01118164 9.25227051 0.12880859 9.9375 0.25 C10.5975 1.24 11.2575 2.23 11.9375 3.25 C3.3575 3.25 -5.2225 3.25 -14.0625 3.25 C-11.75447294 -1.36605412 -4.490027 0.02517184 0 0 Z " fill="#FCFCF9" transform="translate(374.0625,406.75)"/>
<path d="M0 0 C-11.49548273 3.550329 -22.86253051 6.4759792 -35 6 C-35 5.67 -35 5.34 -35 5 C-33.78183594 4.80664062 -32.56367188 4.61328125 -31.30859375 4.4140625 C-29.68486021 4.1512617 -28.06116426 3.8882285 -26.4375 3.625 C-25.63763672 3.49867188 -24.83777344 3.37234375 -24.01367188 3.2421875 C-19.21193224 2.45823001 -14.65568443 1.4095728 -10 0 C-6.18945771 -0.82188167 -3.71952076 -1.05930677 0 0 Z " fill="#F9E3A5" transform="translate(300,377)"/>
<path d="M0 0 C0.86625 0.37125 0.86625 0.37125 1.75 0.75 C1.09 0.75 0.43 0.75 -0.25 0.75 C-0.25 1.74 -0.25 2.73 -0.25 3.75 C-0.91 3.75 -1.57 3.75 -2.25 3.75 C-2.25 6.39 -2.25 9.03 -2.25 11.75 C-3.24 11.75 -4.23 11.75 -5.25 11.75 C-6.71022727 4.44886364 -6.71022727 4.44886364 -4.5625 1.1875 C-2.25 -0.25 -2.25 -0.25 0 0 Z " fill="#FBF3DC" transform="translate(186.25,440.25)"/>
<path d="M0 0 C0.56847656 0.19335938 1.13695312 0.38671875 1.72265625 0.5859375 C9.13950155 3.08711071 16.19894063 5.17883586 24 6 C24 6.33 24 6.66 24 7 C22.41773035 7.19627391 20.83410729 7.38165538 19.25 7.5625 C18.36828125 7.66691406 17.4865625 7.77132812 16.578125 7.87890625 C14.11567549 7.99456676 12.33461936 7.73638695 10 7 C10 6.34 10 5.68 10 5 C9.01 5 8.02 5 7 5 C7 4.34 7 3.68 7 3 C6.030625 2.87625 5.06125 2.7525 4.0625 2.625 C3.051875 2.41875 2.04125 2.2125 1 2 C0.67 1.34 0.34 0.68 0 0 Z " fill="#F9F0D3" transform="translate(232,545)"/>
<path d="M0 0 C0 4.09483035 -0.87141069 7.4768177 -3 11 C-5.32168826 12.5684294 -7.27620782 13.17772311 -10 14 C-8.43632643 10.47761953 -6.30504111 7.72876006 -3.875 4.75 C-3.15054687 3.85796875 -2.42609375 2.9659375 -1.6796875 2.046875 C-0.84824219 1.03367187 -0.84824219 1.03367187 0 0 Z " fill="#F9F3E3" transform="translate(513,306)"/>
<path d="M0 0 C-5.38082285 2.7975517 -10.82044305 5.43891053 -16.375 7.875 C-17.84066406 8.52082031 -17.84066406 8.52082031 -19.3359375 9.1796875 C-22.11591476 10.03569223 -23.32692558 10.02615653 -26 9 C-24.06532058 8.16013916 -22.12714871 7.32831973 -20.1875 6.5 C-19.10855469 6.0359375 -18.02960938 5.571875 -16.91796875 5.09375 C-14 4 -14 4 -11 4 C-11 3.34 -11 2.68 -11 2 C-9.54494642 1.47007308 -8.08581873 0.9513211 -6.625 0.4375 C-5.81289063 0.14746094 -5.00078125 -0.14257812 -4.1640625 -0.44140625 C-2 -1 -2 -1 0 0 Z " fill="#F9E09D" transform="translate(392,347)"/>
<path d="M0 0 C0 0.66 0 1.32 0 2 C-11.52164009 6.59225513 -11.52164009 6.59225513 -17 6 C-16 4 -16 4 -13.1640625 2.9296875 C-11.99617188 2.58164062 -10.82828125 2.23359375 -9.625 1.875 C-8.46226562 1.52179687 -7.29953125 1.16859375 -6.1015625 0.8046875 C-3 0 -3 0 0 0 Z " fill="#FCFDFD" transform="translate(350,547)"/>
<path d="M0 0 C-1 3 -1 3 -2.9375 4 C-3.618125 4.33 -4.29875 4.66 -5 5 C-5.99 6.485 -5.99 6.485 -7 8 C-9.95264073 10.04413589 -11.36672806 11 -15 11 C-13.78258021 9.53184611 -12.55051239 8.07583153 -11.3125 6.625 C-10.62800781 5.81289062 -9.94351562 5.00078125 -9.23828125 4.1640625 C-6.47117655 1.48871171 -3.90417521 0 0 0 Z " fill="#FCFAF5" transform="translate(339,234)"/>
<path d="M0 0 C0.92683594 0.00451172 1.85367187 0.00902344 2.80859375 0.01367188 C5.08079709 0.02538426 7.35286388 0.04178628 9.625 0.0625 C9.625 0.3925 9.625 0.7225 9.625 1.0625 C8.38363281 1.11148437 7.14226562 1.16046875 5.86328125 1.2109375 C4.22133306 1.28599799 2.57940703 1.36154439 0.9375 1.4375 C0.12087891 1.4684375 -0.69574219 1.499375 -1.53710938 1.53125 C-5.9467173 1.74548196 -9.29428963 2.2621866 -13.375 4.0625 C-16.6875 3.6875 -16.6875 3.6875 -19.375 3.0625 C-13.54311888 -0.82542074 -6.77253196 -0.06279809 0 0 Z " fill="#F9E2A2" transform="translate(372.375,405.9375)"/>
<path d="M0 0 C0 0.99 0 1.98 0 3 C-9.405 3.495 -9.405 3.495 -19 4 C-19 3.67 -19 3.34 -19 3 C-16.58424393 2.49521515 -14.16755639 1.99602358 -11.75 1.5 C-11.06808594 1.35691406 -10.38617188 1.21382813 -9.68359375 1.06640625 C-6.35366879 0.38748951 -3.41667449 0 0 0 Z " fill="#FAEABE" transform="translate(334,413)"/>
<path d="M0 0 C0 0.66 0 1.32 0 2 C-0.969375 2.391875 -1.93875 2.78375 -2.9375 3.1875 C-6.80690643 4.81548197 -10.32014922 6.90481693 -13.88671875 9.109375 C-16.39420048 10.16613255 -17.49218435 9.92840128 -20 9 C-18.14635387 8.07317694 -16.29246921 7.14682841 -14.4375 6.22265625 C-12.72502582 5.36367481 -11.01706126 4.49567242 -9.3125 3.62109375 C-8.425625 3.16863281 -7.53875 2.71617187 -6.625 2.25 C-5.79226563 1.82203125 -4.95953125 1.3940625 -4.1015625 0.953125 C-2 0 -2 0 0 0 Z " fill="#F9E8BC" transform="translate(357,490)"/>
<path d="M0 0 C0 4.61205904 -2.88770454 6.79993916 -6 10 C-8.2730396 12.07794837 -10.60438888 14.06508332 -13 16 C-13.66 15.67 -14.32 15.34 -15 15 C-10.05 10.05 -5.1 5.1 0 0 Z " fill="#FBFCFD" transform="translate(419,500)"/>
<path d="M0 0 C2.44328447 3.6649267 2 5.69043086 2 10 C2.66 10.66 3.32 11.32 4 12 C-0.875 11.125 -0.875 11.125 -2 10 C-2.35897436 3.53846154 -2.35897436 3.53846154 0 0 Z " fill="#FAF3DB" transform="translate(201,379)"/>
<path d="M0 0 C-1.53342975 1.53342975 -3.27475701 1.56499821 -5.375 2 C-8.00760137 2.54881592 -10.44182385 3.14727462 -13 4 C-14.39439664 4.06665376 -15.79169875 4.08538199 -17.1875 4.0625 C-19.0746875 4.0315625 -19.0746875 4.0315625 -21 4 C-21 3.67 -21 3.34 -21 3 C-19.10454608 2.51933465 -17.20861961 2.04053257 -15.3125 1.5625 C-14.25675781 1.29566406 -13.20101563 1.02882813 -12.11328125 0.75390625 C-3.78706395 -1.26235465 -3.78706395 -1.26235465 0 0 Z " fill="#F9E3A5" transform="translate(321,372)"/>
<path d="M0 0 C0.33 0 0.66 0 1 0 C1.08142927 1.7492214 1.13938541 3.49954542 1.1875 5.25 C1.22230469 6.22453125 1.25710938 7.1990625 1.29296875 8.203125 C0.95419691 11.4372668 0.11993995 12.59774359 -2 15 C-2.66 15.99 -3.32 16.98 -4 18 C-3.31195504 11.80759538 -1.71951285 5.98044406 0 0 Z " fill="#F9ECC6" transform="translate(553,217)"/>
<path d="M0 0 C0 0.66 0 1.32 0 2 C-1.78710586 2.86366822 -3.5798465 3.71568594 -5.375 4.5625 C-6.37273437 5.03816406 -7.37046875 5.51382813 -8.3984375 6.00390625 C-9.25695312 6.33261719 -10.11546875 6.66132813 -11 7 C-11.66 6.67 -12.32 6.34 -13 6 C-12.67 5.01 -12.34 4.02 -12 3 C-9.78515625 2.05078125 -9.78515625 2.05078125 -7.0625 1.3125 C-6.16660156 1.06113281 -5.27070313 0.80976563 -4.34765625 0.55078125 C-2 0 -2 0 0 0 Z " fill="#FBF8F0" transform="translate(434,178)"/>
<path d="M0 0 C-1.134375 0.45375 -2.26875 0.9075 -3.4375 1.375 C-7.04721692 2.57095806 -7.04721692 2.57095806 -8 5 C-11.3 5 -14.6 5 -18 5 C-15.17770487 3.11846991 -12.72109829 1.99965295 -9.5625 0.8125 C-8.61503906 0.44769531 -7.66757812 0.08289063 -6.69140625 -0.29296875 C-3.92916783 -1.01860758 -2.63633262 -0.97849698 0 0 Z " fill="#F9EABD" transform="translate(475,161)"/>
<path d="M0 0 C1.23593891 3.70781672 0.5678132 4.67510253 -0.9375 8.1875 C-1.31777344 9.08855469 -1.69804687 9.98960937 -2.08984375 10.91796875 C-2.54037109 11.94857422 -2.54037109 11.94857422 -3 13 C-3.66 13 -4.32 13 -5 13 C-4.54177532 9.53058454 -4.10868317 6.32604951 -3 3 C-2.34 3 -1.68 3 -1 3 C-0.67 2.01 -0.34 1.02 0 0 Z " fill="#FCF9F2" transform="translate(448,449)"/>
<path d="M0 0 C-0.33 0.66 -0.66 1.32 -1 2 C-3.14453125 2.66796875 -3.14453125 2.66796875 -5.8125 3.1875 C-6.68519531 3.36667969 -7.55789063 3.54585938 -8.45703125 3.73046875 C-10.97357778 3.99719949 -12.61667355 3.78333107 -15 3 C-11.36041667 -0.63958333 -4.96749719 -0.15523429 0 0 Z " fill="#FCFCFA" transform="translate(328,416)"/>
<path d="M0 0 C0.33 0 0.66 0 1 0 C1.25830258 7.74907749 1.25830258 7.74907749 -1 12 C-1.4697113 14.6634179 -1.73055048 17.30550475 -2 20 C-2.66 20 -3.32 20 -4 20 C-3.58249366 14.95696293 -3.02302305 10.67824079 -1 6 C-0.62406934 4.0075675 -0.28020455 2.0081326 0 0 Z " fill="#F9E3A5" transform="translate(509,192)"/>
<path d="M0 0 C0.33 0.99 0.66 1.98 1 3 C-2.49359465 6.59634744 -6.11098131 9.83451967 -10 13 C-10.66 12.67 -11.32 12.34 -12 12 C-8.04 8.04 -4.08 4.08 0 0 Z " fill="#FDFDFE" transform="translate(308,257)"/>
<path d="M0 0 C1.43410153 3.78819273 0.51009497 6.06521279 -0.9375 9.75 C-1.31777344 10.73484375 -1.69804688 11.7196875 -2.08984375 12.734375 C-2.39019531 13.48203125 -2.69054687 14.2296875 -3 15 C-3.33 15 -3.66 15 -4 15 C-3.63495936 9.33557626 -2.9445679 4.99296295 0 0 Z " fill="#FCFBF9" transform="translate(552,229)"/>
<path d="M0 0 C-2.49505962 2.49505962 -3.67328888 2.35948376 -7.125 2.625 C-8.03507812 2.69976562 -8.94515625 2.77453125 -9.8828125 2.8515625 C-10.93082031 2.92503906 -10.93082031 2.92503906 -12 3 C-12 2.34 -12 1.68 -12 1 C-3.96428571 -1.27678571 -3.96428571 -1.27678571 0 0 Z " fill="#FAE6AF" transform="translate(337,501)"/>
<path d="M0 0 C1.18414294 3.55242882 0.69535532 4.69830562 -0.4375 8.1875 C-0.72496094 9.08855469 -1.01242187 9.98960937 -1.30859375 10.91796875 C-1.53675781 11.60503906 -1.76492188 12.29210937 -2 13 C-2.33 13 -2.66 13 -3 13 C-3.08121924 11.39667209 -3.13929134 9.79215974 -3.1875 8.1875 C-3.22230469 7.29417969 -3.25710938 6.40085938 -3.29296875 5.48046875 C-2.95081002 2.58352485 -2.24606427 1.77444972 0 0 Z " fill="#FCF9F1" transform="translate(557,210)"/>
<path d="M0 0 C0 0.99 0 1.98 0 3 C-0.66 3 -1.32 3 -2 3 C-2 3.66 -2 4.32 -2 5 C-3.98 5.66 -5.96 6.32 -8 7 C-7.375 4.625 -7.375 4.625 -6 2 C-2.875 0.6875 -2.875 0.6875 0 0 Z " fill="#FBF7EB" transform="translate(377,207)"/>
<path d="M0 0 C5.23175837 -0.38281159 8.37802694 0.78145293 13 3 C13 3.66 13 4.32 13 5 C11.01853549 4.55170486 9.03985789 4.09107502 7.0625 3.625 C5.96035156 3.36976563 4.85820312 3.11453125 3.72265625 2.8515625 C2.82417969 2.57054687 1.92570313 2.28953125 1 2 C0.67 1.34 0.34 0.68 0 0 Z " fill="#FAF9F5" transform="translate(226,545)"/>
<path d="M0 0 C0 0.66 0 1.32 0 2 C-1.53125 3.2890625 -1.53125 3.2890625 -3.5 4.625 C-4.1496875 5.07101563 -4.799375 5.51703125 -5.46875 5.9765625 C-6.22671875 6.48316406 -6.22671875 6.48316406 -7 7 C-8.32 6.34 -9.64 5.68 -11 5 C-8 3 -8 3 -4 3 C-4 2.34 -4 1.68 -4 1 C-2 0 -2 0 0 0 Z " fill="#FAF0D2" transform="translate(408,189)"/>
<path d="M0 0 C-4.9221313 2.63365987 -9.57903298 4.64475824 -15 6 C-13 3 -13 3 -9.875 2.3125 C-8.92625 2.209375 -7.9775 2.10625 -7 2 C-7 1.34 -7 0.68 -7 0 C-3.86650268 -1.04449911 -3.01031744 -0.93423645 0 0 Z " fill="#FAF8ED" transform="translate(482,159)"/>
<path d="M0 0 C-0.63808594 0.19335938 -1.27617187 0.38671875 -1.93359375 0.5859375 C-3.17302734 0.97652344 -3.17302734 0.97652344 -4.4375 1.375 C-5.67306641 1.75785156 -5.67306641 1.75785156 -6.93359375 2.1484375 C-9.17798016 2.80882227 -9.17798016 2.80882227 -10 5 C-11.32 4.67 -12.64 4.34 -14 4 C-12.66065756 1.32131513 -11.48307603 1.25045922 -8.6875 0.3125 C-7.90761719 0.04050781 -7.12773437 -0.23148438 -6.32421875 -0.51171875 C-3.81725489 -1.03839183 -2.39867657 -0.8178554 0 0 Z " fill="#FAF1D4" transform="translate(343,549)"/>
<path d="M0 0 C-3.60178588 2.40119059 -6.50866369 2.43771322 -10.6875 2.625 C-11.38939453 2.66367187 -12.09128906 2.70234375 -12.81445312 2.7421875 C-14.54254655 2.8362334 -16.27123675 2.9191968 -18 3 C-14.93344745 0.95563163 -13.12890332 0.45609789 -9.5625 -0.1875 C-8.61503906 -0.36667969 -7.66757812 -0.54585938 -6.69140625 -0.73046875 C-4.10788261 -0.98919608 -2.43945237 -0.81315079 0 0 Z " fill="#F8E5AE" transform="translate(315,418)"/>
<path d="M0 0 C0 0.99 0 1.98 0 3 C-0.66 3 -1.32 3 -2 3 C-2.268125 3.969375 -2.53625 4.93875 -2.8125 5.9375 C-3.204375 6.948125 -3.59625 7.95875 -4 9 C-4.99 9.33 -5.98 9.66 -7 10 C-5.64615385 3.47692308 -5.64615385 3.47692308 -2.375 1.0625 C-1.199375 0.5365625 -1.199375 0.5365625 0 0 Z " fill="#FBF9F1" transform="translate(519,301)"/>
<path d="M0 0 C0.97983761 3.04838368 1.21704816 5.00418914 0 8 C-2.0625 10.25 -2.0625 10.25 -4 12 C-3.52309796 10.37433394 -3.04340334 8.74948689 -2.5625 7.125 C-2.29566406 6.22007812 -2.02882813 5.31515625 -1.75390625 4.3828125 C-1 2 -1 2 0 0 Z " fill="#F9E9BE" transform="translate(544,247)"/>
<path d="M0 0 C1.32 0 2.64 0 4 0 C2.9024777 2.99324263 2.32317108 3.84610901 -0.625 5.25 C-1.40875 5.4975 -2.1925 5.745 -3 6 C-2.01 4.02 -1.02 2.04 0 0 Z " fill="#FBF7EC" transform="translate(357,218)"/>
<path d="M0 0 C0.33 0 0.66 0 1 0 C1.08082094 1.95766281 1.13910778 3.91626728 1.1875 5.875 C1.23970703 7.51082031 1.23970703 7.51082031 1.29296875 9.1796875 C1.19628906 10.11039063 1.09960938 11.04109375 1 12 C0.01 12.66 -0.98 13.32 -2 14 C-1.03644647 4.58997722 -1.03644647 4.58997722 0 0 Z " fill="#F9EBC4" transform="translate(557,198)"/>
<path d="M0 0 C-0.75 2.4375 -0.75 2.4375 -2 5 C-4.125 5.8125 -4.125 5.8125 -6 6 C-3.84615385 0 -3.84615385 0 0 0 Z " fill="#FBF9F3" transform="translate(506,319)"/>
<path d="M0 0 C0 4.61538462 0 4.61538462 -1 7 C-3.5625 8.25 -3.5625 8.25 -6 9 C-4.47291037 5.56404834 -2.40072955 2.88087546 0 0 Z " fill="#F8EBCA" transform="translate(513,306)"/>
<path d="M0 0 C0.33 0.99 0.66 1.98 1 3 C-0.32 4.32 -1.64 5.64 -3 7 C-3.99 6.67 -4.98 6.34 -6 6 C-4 4 -2 2 0 0 Z " fill="#FADA82" transform="translate(452,303)"/>
<path d="M0 0 C3.625 -0.1875 3.625 -0.1875 7 0 C6.67 0.66 6.34 1.32 6 2 C3.35139573 2.59355614 0.70802678 2.74209269 -2 3 C-1.34 2.01 -0.68 1.02 0 0 Z " fill="#FCFCFA" transform="translate(344,411)"/>
<path d="M0 0 C0.66 1.32 1.32 2.64 2 4 C-1.75 7 -1.75 7 -4 7 C-2.79618552 4.50638429 -1.54571278 2.31856917 0 0 Z " fill="#FAF2DC" transform="translate(222,347)"/>
<path d="M0 0 C1 2 1 2 0.0625 5.125 C-0.288125 6.07375 -0.63875 7.0225 -1 8 C-1.99 8 -2.98 8 -4 8 C-3.40072174 4.64404172 -2.15377564 2.62198774 0 0 Z " fill="#FDFCF9" transform="translate(544,254)"/>
<path d="M0 0 C1.8871875 0.061875 1.8871875 0.061875 3.8125 0.125 C2.25 1.6875 2.25 1.6875 -0.1875 3.125 C-3.9375 2.8125 -3.9375 2.8125 -7.1875 2.125 C-4.09861478 0.06574319 -3.47814073 -0.1140374 0 0 Z " fill="#FAE9B9" transform="translate(360.1875,406.875)"/>
<path d="M0 0 C0.33 0.99 0.66 1.98 1 3 C-1.375 4.5625 -1.375 4.5625 -4 6 C-4.66 5.67 -5.32 5.34 -6 5 C-5.25 3.0625 -5.25 3.0625 -4 1 C-1.875 0.25 -1.875 0.25 0 0 Z " fill="#FAF9F3" transform="translate(452,367)"/>
</svg>
